<?xml version="1.0" encoding="utf-8"?>
<!-- Generator: Adobe Illustrator 27.3.1, SVG Export Plug-In . SVG Version: 6.00 Build 0)  -->
<svg version="1.1" id="Layer_1" xmlns="http://www.w3.org/2000/svg" xmlns:xlink="http://www.w3.org/1999/xlink" x="0px" y="0px"
	 viewBox="0 0 131.2 60.9" style="enable-background:new 0 0 131.2 60.9;" xml:space="preserve">
<style type="text/css">
	.st0{fill:#FFFFFF;}
</style>
<g id="_0Pee7b.tif">
	<path class="st0" d="M0,43.7c0.4-1,0.9-2,1.5-2.9c0.8-1.3,2.3-1.9,3.8-1.5c7.7,1.6,15.5,3,23.2,4.5c0.7,0.1,1.4,0.3,1.9-0.5
		c0.5-0.6,0.4-1.5-0.2-2c-0.2-0.2-0.5-0.3-0.8-0.3L11,37.5c-1.5-0.3-2.9-0.7-4.4-1c-0.8-0.2-1.2-0.7-0.9-1.5C6,34,6.5,33,7.1,32
		c0.8-1.2,2.3-1.7,3.6-1.3l22,4.4c1,0.2,1.6-0.1,1.8-1s-0.2-1.3-1.3-1.5c-6.9-1.4-13.8-2.7-20.7-4.1c-0.9-0.2-1.2-0.6-1-1.4
		c0.2-1.8,1.2-3.4,2.8-4.5C15,22,16,21.8,17,22c6.5,1.3,13,2.6,19.4,3.8c1.1,0.2,1.4,0,1.7-0.9s0-1.5-1-1.7
		c-3.7-0.8-7.5-1.5-11.2-2.2l-4.8-0.9c-1.5-0.3-1.7-1-0.8-2.1c4.1-4.9,8.9-9,14.4-12.2c3.5-2,7.2-3.7,11-5c5.2-1.6,10-0.5,13,4.7
		L67.9,3l0.3,0.3c-0.3,0.1-0.5,0.2-0.7,0.4c-3.4,2.9-4.6,7.6-3.1,11.8c1.8,4.1,5.7,6.9,10.2,7.2c3.8,0.3,7.6-1.3,10-4.3
		c4.3-5.2,2.2-13.2-4.1-16.3l-0.9-0.4V1.3c0.3,0,0.6,0,0.9,0c5.1,0.2,10.2,0.8,15.1,1.9c4.3,0.9,8.6,1.6,13,2.2
		c3.9,0.5,7.9,0.3,11.8-0.6c2.2-0.5,4.5-0.5,6.7,0.1c1.1,0.4,2.1,1,3,1.8c1.6,1.5,1.6,3.4,0.3,5.1c-1.1,1.4-2.6,2.4-4.2,3
		c-6.1,2.5-12.2,4.9-18.1,7.7c-14.9,7.1-28.3,17-39.6,29c-1.9,2-3.6,4.3-5.3,6.5c-0.9,1.3-2.3,2.3-3.8,2.9h-2.6
		c-2.2-0.5-4.1-1.7-5.4-3.5c-0.9-1.3-1.7-2.7-2.4-4.1c-0.8-1.7-1.3-3.5-1.9-5.4c-0.1,0.3-0.3,0.5-0.4,0.8c-1.1,2.6-2.6,4.9-4.6,6.8
		c-3.8,3.6-8.6,2.6-11.9,0.2c-0.9-0.6-1.4-1.6-1.4-2.6c0.1-0.8-0.5-1.5-1.3-1.6c0,0-0.1,0-0.1,0L5.9,47.4C3.9,47,2,46.6,0,46.1V43.7
		z M36.2,54.4c1.3,0.1,2.6-0.5,3.3-1.5c0.2-0.3,0.2-1.1,0.1-1.2c-0.5-0.2-1-0.3-1.5-0.3c-0.4,0-0.7,0.5-1.1,0.6
		c-0.9,0.4-1.9,0.1-2.4-0.7c-0.6-0.7-0.5-1.7,0.2-2.3c0.5-0.5,1-0.9,1.7-1.2c0.7-0.3,0.8-0.8,0.5-1.3C36.4,46.1,36,46,35.5,46
		c-2.3,0.2-4,2.3-3.8,4.6c0,0,0,0,0,0C31.9,52.9,33.6,54.4,36.2,54.4z M44.3,34c1.2,0,2.3-0.5,2.9-1.5c0.2-0.3,0.2-1.2,0.1-1.3
		c-0.5-0.2-1.1-0.3-1.6-0.2c-0.4,0-0.7,0.5-1.1,0.6c-0.8,0.3-1.8,0-2.3-0.7c-0.5-0.7-0.5-1.6,0.1-2.2c0.5-0.5,1.1-0.9,1.7-1.3
		c0.3-0.2,0.7-0.6,0.6-0.8c-0.1-0.4-0.4-0.7-0.8-0.8c-0.3-0.1-0.7-0.1-1,0c-2.2,0.5-3.7,2.6-3.4,4.8C39.8,32.6,41.5,34,44.3,34z
		 M40.5,44.3c1.3,0.1,2.5-0.4,3.2-1.5c0.2-0.4,0.3-0.9,0.1-1.3c-0.4-0.5-1-0.6-1.5-0.3c0,0,0,0,0,0c-0.3,0.2-0.7,0.4-1,0.6
		c-0.9,0.4-1.9,0.1-2.5-0.7c-0.5-0.7-0.4-1.7,0.3-2.3c0.5-0.5,1-0.9,1.7-1.2c0.7-0.3,0.8-0.8,0.5-1.2c-0.3-0.4-0.8-0.5-1.3-0.5
		c-2.3,0.2-4,2.3-3.7,4.5c0,0.1,0,0.1,0,0.2C36.3,42.9,38,44.3,40.5,44.3z M51.3,27.4c-0.2,1-0.2,1,0.6,1.2c2.8,0.6,5.8-0.7,7.1-3.3
		c1.6-2.9,2.4-6.2,2.3-9.6c-0.1-0.3-0.3-0.5-0.6-0.6c-0.3,0.1-0.6,0.3-0.7,0.6c-0.2,1.1-0.2,2.2-0.4,3.3c-0.3,2.4-1.2,4.6-2.6,6.5
		c-1.1,1.6-3.1,2.3-5,1.9C51.8,27.5,51.5,27.4,51.3,27.4z M60.8,12.9c0.6,0,1.2-0.5,1.2-1.1c0,0,0-0.1,0-0.1c0-0.7-0.5-1.2-1.2-1.2
		c0,0,0,0,0,0c-0.7,0-1.3,0.5-1.3,1.2c0,0,0,0.1,0,0.1C59.5,12.5,60,12.9,60.8,12.9z"/>
	<path class="st0" d="M75,3.1c4.7,0,8.7,3.5,9.2,8.2c0.4,3.7-2,7.2-5.5,8.3c-2.4,0.8-5,0.7-7.3-0.2c-3.3-1.1-5.5-4.2-5.4-7.7
		c0.1-3.8,2.6-7.1,6.2-8.1C73.1,3.3,74.1,3.2,75,3.1z M81.7,9.7c-1.4,5.1-4.5,7.5-9.7,7.2c1.9,1.5,4.6,1.6,6.7,0.3
		C81.3,15.8,82.4,13.2,81.7,9.7L81.7,9.7z"/>
</g>
</svg>
