<?xml version="1.0" encoding="UTF-8"?><svg id="Layer_1" xmlns="http://www.w3.org/2000/svg" width="59.75" height="27.63" viewBox="0 0 59.75 27.63"><g id="_0Pee7b.tif"><path id="Layer" d="m0,19.81c.05-.11.1-.22.15-.34.05-.11.11-.22.16-.33.06-.11.11-.22.17-.33.06-.11.12-.22.18-.32.09-.15.19-.27.32-.38.13-.11.27-.2.43-.25.15-.06.32-.1.49-.1.16,0,.33.01.49.06,3.51.71,7.04,1.37,10.56,2.07.3.06.63.14.84-.2.08-.09.12-.2.14-.32.02-.12,0-.24-.05-.35-.05-.11-.12-.2-.22-.28-.1-.07-.21-.11-.33-.12l-8.34-1.61c-.66-.13-1.32-.3-1.99-.46-.38-.09-.54-.34-.42-.69.04-.12.08-.24.13-.36.05-.11.09-.23.15-.35.05-.11.1-.23.16-.34.06-.11.12-.22.18-.33.09-.13.19-.25.31-.35.12-.1.26-.18.41-.23.15-.05.3-.08.46-.09.16,0,.31.02.46.06l10.01,1.98c.46.1.72-.06.8-.46.08-.4-.1-.61-.59-.7-3.15-.62-6.29-1.24-9.43-1.87-.4-.08-.53-.28-.46-.65.03-.2.08-.41.15-.6.07-.2.16-.38.26-.56.11-.17.24-.34.38-.49.14-.15.3-.28.47-.4.09-.06.19-.11.3-.15.1-.04.21-.07.32-.09.11-.02.22-.02.34-.02.11,0,.22.02.33.05,2.95.59,5.92,1.17,8.85,1.75.49.1.66,0,.77-.41.12-.41,0-.67-.46-.76-1.69-.34-3.39-.67-5.09-1l-2.17-.42c-.66-.13-.79-.46-.35-.96.46-.55.95-1.08,1.46-1.59.51-.51,1.04-1,1.58-1.46.55-.46,1.12-.9,1.71-1.32.59-.41,1.2-.8,1.82-1.17.4-.23.8-.46,1.21-.67.41-.21.82-.41,1.24-.6.42-.19.84-.37,1.27-.54.42-.17.86-.32,1.29-.47,2.37-.75,4.55-.24,5.92,2.16l4.13-1.2.12.15s-.05.02-.09.04c-.03,0-.05.02-.08.04-.03.01-.05.03-.08.05-.03.02-.05.03-.08.05-.37.32-.7.7-.96,1.11-.26.42-.46.87-.59,1.35-.13.48-.18.97-.16,1.46.02.49.12.98.28,1.44.2.46.45.89.76,1.27.31.39.68.73,1.09,1.02.41.29.85.51,1.32.68.47.16.96.26,1.46.29.43.04.86.02,1.29-.05.42-.07.84-.19,1.24-.36.39-.17.76-.39,1.11-.65.34-.26.65-.57.92-.91,1.94-2.39,1.01-6.03-1.88-7.43l-.41-.2v-.11h.41c.58.02,1.16.06,1.73.1.58.05,1.15.11,1.73.18.57.07,1.15.16,1.72.25.57.1,1.14.21,1.71.33,1.95.4,3.93.73,5.92.99.45.05.9.09,1.35.1.45.01.9.01,1.35-.01.45-.02.9-.06,1.35-.13.45-.06.89-.15,1.33-.25.25-.06.5-.11.76-.14.25-.03.51-.04.77-.04.25,0,.51.02.76.06.25.04.51.1.75.16.13.04.25.09.37.15.12.05.24.12.36.18.11.07.23.14.33.22.11.08.21.16.31.25.73.68.75,1.53.14,2.32-.13.15-.26.3-.41.43-.15.14-.3.26-.46.38-.16.11-.33.22-.51.31-.18.1-.36.18-.55.25-2.75,1.16-5.56,2.23-8.25,3.51-1.69.81-3.34,1.69-4.95,2.66-1.61.96-3.17,2-4.68,3.1-1.51,1.11-2.97,2.29-4.37,3.53-1.4,1.24-2.74,2.55-4.02,3.92-.87.91-1.63,1.96-2.44,2.95-.1.15-.22.29-.35.42-.13.13-.26.25-.41.37-.15.11-.3.21-.46.3-.16.09-.33.16-.5.23h-1.19c-.25-.05-.49-.13-.72-.23s-.46-.21-.66-.35-.41-.3-.59-.46c-.18-.17-.35-.36-.5-.56-.1-.15-.21-.3-.3-.45-.1-.15-.2-.31-.29-.46s-.18-.31-.26-.47c-.09-.16-.16-.32-.24-.48-.35-.77-.58-1.6-.88-2.44-.06.13-.12.25-.17.37-.12.29-.25.57-.41.85-.15.28-.31.55-.49.81s-.36.51-.56.76c-.2.24-.42.47-.64.7-1.73,1.63-3.92,1.17-5.41.07-.1-.06-.19-.14-.27-.23-.08-.09-.15-.18-.21-.29-.05-.1-.1-.21-.13-.32-.03-.11-.05-.23-.05-.35,0-.09,0-.18-.03-.26-.03-.08-.07-.16-.13-.23-.06-.06-.13-.12-.21-.16-.08-.04-.16-.05-.25-.06l-9.64-1.88c-.9-.19-1.78-.39-2.69-.59v-1.1Zm16.46,4.87c.15.01.29.01.43-.01.15-.02.28-.06.41-.13.13-.06.25-.14.36-.24.11-.09.2-.2.29-.32.09-.15.11-.5.03-.56-.05-.03-.1-.05-.16-.07-.06-.02-.11-.03-.17-.05-.06,0-.11-.02-.17-.02s-.12,0-.18,0c-.18,0-.33.21-.51.28-.1.04-.2.06-.3.07-.1,0-.2,0-.31-.03-.1-.03-.2-.07-.28-.13-.09-.06-.16-.13-.22-.22-.06-.07-.11-.16-.14-.25-.03-.1-.05-.19-.04-.29,0-.1.03-.19.07-.28.04-.09.1-.17.17-.23.05-.06.11-.12.17-.17.06-.05.12-.1.19-.15.06-.05.13-.09.2-.13.07-.04.14-.08.21-.11.33-.15.38-.37.21-.59-.04-.04-.08-.07-.12-.1-.05-.03-.09-.05-.14-.07-.05-.02-.1-.03-.15-.04-.05,0-.1,0-.16,0-.25.03-.5.1-.71.22-.22.12-.42.28-.58.48s-.28.42-.36.66c-.07.24-.1.5-.07.75.08,1.04.86,1.7,2.01,1.72Zm3.7-9.29c.13,0,.26,0,.39-.04.13-.03.25-.08.37-.14.11-.06.22-.13.32-.22.1-.09.18-.19.25-.3.1-.15.11-.55.04-.58-.05-.03-.11-.05-.17-.06-.06-.02-.12-.03-.18-.04-.06,0-.13-.01-.19-.02-.06,0-.12,0-.19.01-.18.02-.33.2-.51.27-.1.03-.19.05-.29.05s-.2-.01-.29-.04c-.1-.03-.19-.08-.26-.14-.08-.05-.15-.13-.21-.21-.06-.07-.1-.15-.13-.25-.03-.09-.04-.18-.04-.27,0-.09.03-.18.07-.27.04-.09.09-.16.15-.23.06-.05.13-.11.19-.16.06-.05.13-.11.19-.16.07-.05.13-.1.2-.15.07-.05.14-.1.2-.14.12-.1.3-.28.27-.38-.02-.04-.04-.08-.06-.12-.03-.04-.05-.07-.08-.1-.03-.03-.07-.06-.1-.09-.04-.03-.08-.05-.12-.07-.04,0-.08-.02-.11-.02-.04,0-.08,0-.11,0-.04,0-.08,0-.12.01-.04,0-.07.02-.11.03-.24.05-.47.15-.67.28-.2.14-.38.31-.52.51-.14.2-.24.43-.3.66-.05.24-.07.49-.03.73.11.97.91,1.62,2.16,1.62Zm-1.72,4.7c.14.01.28.01.42,0s.28-.06.41-.12c.13-.06.25-.14.36-.23.11-.09.2-.2.29-.31.03-.05.05-.09.06-.14.02-.05.03-.1.03-.15,0-.05,0-.1,0-.15,0-.05-.02-.1-.04-.15-.04-.05-.09-.1-.15-.14-.06-.04-.12-.06-.19-.07-.07-.01-.14,0-.2,0-.07.02-.13.05-.18.09-.04.02-.07.05-.11.07s-.08.05-.11.06c-.04.02-.08.05-.11.06-.04.02-.08.04-.12.06-.1.05-.2.07-.31.08-.11,0-.21,0-.32-.03-.1-.03-.2-.07-.29-.13-.09-.06-.16-.13-.23-.22-.06-.08-.1-.16-.13-.26-.03-.09-.03-.19-.02-.29.01-.1.04-.19.09-.27.05-.09.11-.16.18-.22.05-.06.11-.11.17-.17.06-.05.12-.1.19-.15.06-.05.13-.09.2-.13.07-.04.14-.08.21-.11.31-.14.37-.37.23-.56-.04-.04-.08-.07-.13-.1s-.1-.05-.15-.08c-.05-.02-.11-.03-.16-.04-.05,0-.11,0-.16,0-.25.02-.5.1-.73.22-.22.12-.42.29-.58.49s-.27.43-.34.68c-.07.25-.08.51-.05.76.05,1,.84,1.64,1.98,1.66Zm5.17-7.13c.31.07.64.09.96.06.32-.04.63-.12.92-.25.29-.13.56-.31.79-.53.24-.22.43-.48.58-.76.18-.33.34-.67.48-1.03.14-.35.25-.71.34-1.08.09-.36.15-.74.19-1.12.04-.38.05-.76.04-1.13,0-.04-.02-.07-.04-.1-.02-.03-.04-.06-.07-.09-.02-.02-.05-.05-.08-.06-.03-.02-.06-.03-.1-.04-.04,0-.07.02-.1.04-.03.01-.06.04-.09.06-.02.03-.05.05-.07.09-.02.03-.04.06-.05.1-.09.5-.1,1.01-.19,1.51-.03.27-.08.53-.15.79-.07.26-.15.52-.25.77-.1.25-.21.5-.34.73-.13.24-.27.46-.43.68-.13.17-.28.33-.45.46-.17.13-.36.23-.56.31-.2.07-.41.12-.63.13-.21.01-.43,0-.64-.05-.03,0-.05,0-.08-.01-.03,0-.05,0-.08,0-.03,0-.06,0-.09,0-.03,0-.05,0-.08,0-.11.46-.1.46.26.55Zm4.28-7.19c.07-.03.13-.07.19-.12.05-.05.09-.11.12-.18.02-.07.04-.15.03-.22,0-.07-.01-.15-.04-.22-.03-.07-.07-.13-.12-.18-.05-.05-.12-.09-.19-.12-.07-.03-.15-.04-.22-.04-.08,0-.16,0-.23.04-.07.03-.14.07-.19.13-.05.05-.1.12-.13.2-.03.07-.04.15-.03.23,0,.32.24.52.6.52.07,0,.15,0,.21-.04Z" fill="#fff" fill-rule="evenodd"/><path id="Layer-2" d="m34.14,1.31c.51,0,1.02.09,1.51.27.48.18.92.45,1.31.79.39.34.71.75.94,1.21.24.46.39.95.45,1.46.04.41,0,.82-.09,1.22-.1.4-.27.78-.5,1.12-.23.34-.51.64-.84.89-.33.25-.7.43-1.09.56-.27.09-.55.15-.82.2-.28.04-.56.06-.85.05-.28,0-.56-.04-.84-.1-.28-.05-.55-.14-.81-.24-.36-.12-.71-.3-1.02-.52-.3-.23-.57-.51-.8-.82-.22-.31-.39-.66-.49-1.03-.11-.37-.16-.75-.15-1.13,0-.41.08-.83.21-1.22.14-.39.33-.76.59-1.09.25-.33.56-.62.9-.85.34-.23.72-.41,1.12-.52.42-.11.86-.16,1.27-.24Zm3.06,3c-.62,2.32-2.05,3.41-4.42,3.26.21.16.46.3.71.39.25.1.52.15.79.16.27.01.55-.01.81-.08.26-.07.51-.18.74-.32,1.17-.63,1.67-1.8,1.39-3.41h-.02Z" fill="#fff" fill-rule="evenodd"/></g></svg>