<?xml version="1.0" encoding="utf-8"?>
<svg id="Layer_1" data-name="Layer 1" xmlns="http://www.w3.org/2000/svg" viewBox="0 0 534.16 629.757">
  <defs>
    <style>.cls-1{fill:url(#linear-gradient);}.cls-2{fill:url(#peterportal);}</style>
    <linearGradient id="linear-gradient" x1="0.46" y1="311.66" x2="2031.36" y2="311.66" gradientUnits="userSpaceOnUse">
      <stop offset="0" stop-color="#2484c6"/>
      <stop offset="1" stop-color="#74d1f6"/>
    </linearGradient>
    <linearGradient id="peterportal" x1="-200.8" y1="-2600.52" x2="1860.3" y2="-2600.52" gradientTransform="translate(1962.7 -2199.48) rotate(180)" gradientUnits="userSpaceOnUse">
      <stop offset="0" stop-color="#2484c6"/>
      <stop offset="1" stop-color="#6aa2b8"/>
    </linearGradient>
  </defs>
  <path class="cls-1" d="M 505.6 128.77 L 505.6 142.38 C 503.954 145.789 502.042 149.063 499.88 152.17 C 487.49 170.02 469.88 178.25 462.77 181.49 C 377.48 220.22 321.13 241.61 321.13 241.61 C 276.21 260.04 233.05 281.38 192.18 306.93 C 186.25 310.64 179.82 313.88 174.45 321.71 C 168.98 354.86 168.59 390.44 166.71 425.9 C 165.48 449.08 164.36 472.27 163 495.45 C 162.54 503.21 159.8 509.84 150 512.81 C 133 510.43 128.53 496.54 126.24 483.51 C 117.1 431.4 116.88 378.74 118.95 326.11 C 119.59 310.11 127.3 297.25 141.51 287.51 C 193.42 251.9 249.15 223.05 308.22 199.75 C 349.95 183.28 392.15 167.75 432.44 148.16 C 438.71 145.16 445.49 142.65 450.8 136.31 C 439.8 129.79 427.8 130.31 416.56 128.41 C 350.38 117.11 283.95 108.57 216.46 109.09 C 161.21 109.52 107.74 117.8 56.3 137.47 C 40.64 143.47 29.24 144.47 20.8 139.99 C 9.52 134 5.38 117.94 3.44 111 C 1.27 103.2 1 97.34 0.74 88.9 C 0.14 71.27 -0.38 56 8.91 43 C 11.34 39.61 16.39 32.66 24.68 31.37 C 28.452 30.811 32.305 31.324 35.8 32.85 C 49.63 38.71 66.74 68 65.34 83.49 C 62.522 87.787 57.959 90.631 52.86 91.27 C 42.11 91 39 80.87 30.58 76.31 C 26.79 90.87 25.58 104.31 31.24 119.56 C 44.906 110.7 59.868 104.023 75.59 99.77 C 75.59 94.69 75.4 90.17 75.59 85.68 C 76.85 60.52 84.79 38.13 105.1 20.68 C 112.56 14.3 119.63 11.6 126.04 12.83 C 129.38 13.65 132.47 15.274 135.04 17.56 C 141.3 23.28 141.57 31.93 141.86 48.99 C 142.06 61.09 141.14 72.33 136.18 76.05 C 134.759 77.243 132.955 77.882 131.1 77.85 C 128.917 77.587 126.939 76.437 125.63 74.67 C 118.2 67.53 114.83 59.48 112.32 50.21 C 102.287 61.977 97.113 77.124 97.85 92.57 C 105.06 90.33 112.74 88.19 120.85 86.21 C 128.96 84.23 135.06 83.02 140.76 81.88 C 140.76 81.88 151.88 79.67 162.19 78.01 C 199.72 72 241 71.68 241 71.68 C 268.621 71.224 296.236 72.896 323.6 76.68 C 334.77 78.15 346.05 78.88 357.21 80.41 C 394.77 85.57 432.5 89.83 469.29 99.28 C 486.55 103.74 499.42 112.36 505.6 128.77 Z M 103.25 172.48 C 99.25 164.91 94.14 159.21 84.7 159.74 C 75.26 160.27 70.45 166.47 67.43 174.35 C 61.3 190.3 62 207 63.37 223.51 C 64.06 231.74 69.92 236.71 78.48 237.38 C 84.76 237.86 91.12 238.46 97.16 236.16 C 112 219.94 114.41 193.39 103.25 172.48 Z M 121.8 586.74 C 124.68 599.38 135.99 609.99 147.3 610.68 C 160.1 611.46 170.5 604.16 175.77 590.68 C 184.23 569.1 171.15 547.04 144.2 538.94 C 125.37 550.81 117.54 568.05 121.8 586.74 Z"/>
  <path class="cls-2" d="M124.88,425.52v-49C124.47,392.88,124.55,409.21,124.88,425.52Z"/>
</svg>