<?xml version="1.0" encoding="UTF-8" standalone="no"?>
<!-- Created with Inkscape (http://www.inkscape.org/) -->

<svg
   xmlns:dc="http://purl.org/dc/elements/1.1/"
   xmlns:cc="http://creativecommons.org/ns#"
   xmlns:rdf="http://www.w3.org/1999/02/22-rdf-syntax-ns#"
   xmlns:svg="http://www.w3.org/2000/svg"
   xmlns="http://www.w3.org/2000/svg"
   xmlns:sodipodi="http://sodipodi.sourceforge.net/DTD/sodipodi-0.dtd"
   xmlns:inkscape="http://www.inkscape.org/namespaces/inkscape"
   width="111.72582mm"
   height="65.495125mm"
   viewBox="0 0 111.72582 65.495125"
   version="1.1"
   id="svg1035"
   inkscape:version="0.92.4 (5da689c313, 2019-01-14)"
   sodipodi:docname="logo.svg">
  <defs
     id="defs1029" />
  <sodipodi:namedview
     id="base"
     pagecolor="#ffffff"
     bordercolor="#666666"
     borderopacity="1.0"
     inkscape:pageopacity="0.0"
     inkscape:pageshadow="2"
     inkscape:zoom="0.98994949"
     inkscape:cx="162.89144"
     inkscape:cy="213.80045"
     inkscape:document-units="mm"
     inkscape:current-layer="layer1"
     showgrid="false"
     inkscape:window-width="1920"
     inkscape:window-height="1001"
     inkscape:window-x="-9"
     inkscape:window-y="-9"
     inkscape:window-maximized="1"
     inkscape:pagecheckerboard="true"
     fit-margin-top="0"
     fit-margin-left="0"
     fit-margin-right="0"
     fit-margin-bottom="0" />
  <metadata
     id="metadata1032">
    <rdf:RDF>
      <cc:Work
         rdf:about="">
        <dc:format>image/svg+xml</dc:format>
        <dc:type
           rdf:resource="http://purl.org/dc/dcmitype/StillImage" />
        <dc:title></dc:title>
      </cc:Work>
    </rdf:RDF>
  </metadata>
  <g
     inkscape:label="Layer 1"
     inkscape:groupmode="layer"
     id="layer1"
     transform="translate(-77.621809,-231.30758)">
    <g
       id="g1142"
       transform="translate(-6.7860954,78.105635)"
       style="fill:#ffffff;fill-opacity:1"
       inkscape:export-xdpi="96"
       inkscape:export-ydpi="96">
      <path
         d="m 131.78036,153.63 c -3.19832,-0.23332 -7.28746,0.70383 -11.99815,3.42368 -4.60483,2.65875 -7.50252,4.18738 -9.2914,5.41752 -0.89443,0.61507 -1.52878,1.16029 -1.93992,1.80014 -0.41115,0.63984 -0.53741,1.37952 -0.43491,2.10776 l 0.0515,0.36269 0.32237,0.17659 c 0.51183,0.27859 2.75575,1.34069 3.80163,1.86091 -0.62498,-0.047 -1.34944,-0.0858 -1.90749,-0.13673 -1.66301,-0.15181 -3.03223,-0.36001 -3.4106,-0.49371 -0.70828,-0.25025 -1.37245,0.0196 -1.97807,0.40067 -0.60562,0.3811 -1.18908,0.94063 -1.69385,1.61784 -0.80582,1.08107 -1.2288,2.51123 -1.1178,3.96297 -0.0138,5e-5 -0.0359,-0.004 -0.0496,-0.004 -0.30756,0.002 -0.57988,0.0195 -0.83166,0.0646 -0.2518,0.045 -0.49395,0.095 -0.75347,0.31712 -0.906446,0.77598 -1.620416,2.25082 -2.102046,3.76358 -0.24082,0.75638 -0.40245,1.50668 -0.40248,2.19701 -2e-5,0.27358 0.0614,0.55182 0.13734,0.82032 -1.100283,0.71735 -1.670052,1.99871 -2.010502,3.42368 -0.35923,1.50358 -0.492841,3.19775 -0.595139,4.68265 -0.02987,0.41394 0.220252,0.69677 0.404389,0.8469 0.184137,0.15013 0.372773,0.24517 0.591324,0.3418 0.437101,0.19327 0.996549,0.3692 1.680498,0.56586 1.36791,0.39335 3.218006,0.85048 5.245616,1.43556 4.0552,1.17017 8.80272,2.88813 11.52889,5.42321 1.02314,0.95141 2.42233,1.8532 3.63568,2.74009 1.20658,0.88193 2.17648,1.7966 2.39391,2.34512 -0.018,-0.0545 -0.004,-0.0318 -0.0267,0.0835 -0.0265,0.13349 -0.087,0.32912 -0.17359,0.54498 -0.17305,0.43172 -0.45169,0.94873 -0.74773,1.36719 -0.25466,0.35997 -0.50206,0.5673 -0.64283,0.66841 -3.00577,-4.7477 -4.47369,-6.2307 -5.89988,-7.52147 -1.39662,-1.26401 -2.61299,-2.44746 -5.4993,-3.7503 -1.43673,-0.64852 -4.64975,-1.5006 -7.67004,-2.2008 -1.510136,-0.3501 -2.951128,-0.65216 -4.057237,-0.84311 -0.553053,-0.0955 -1.020429,-0.16296 -1.388654,-0.19558 -0.184114,-0.0163 -0.341431,-0.0258 -0.497857,-0.019 -0.07821,0.004 -0.155558,0.01 -0.255604,0.0323 -0.100045,0.023 -0.238666,0.0424 -0.423464,0.22976 -1.010258,1.02437 -1.311855,2.52229 -1.23224,3.78448 0.03981,0.63109 0.170961,1.21237 0.474965,1.6995 0.152002,0.24356 0.357274,0.47214 0.644733,0.62283 0.28746,0.1507 0.655952,0.1942 0.984268,0.11394 4.141184,-1.01318 6.6832,-1.34672 8.45019,-1.25137 1.767,0.0954 2.78306,0.57794 4.10112,1.3596 1.45403,0.8623 3.58231,2.70932 4.35099,4.79088 0.38435,1.04079 0.46238,2.11832 0.0229,3.27937 -0.43949,1.16106 -1.425,2.43404 -3.29043,3.74081 -4.51041,3.15961 -8.019,3.49668 -11.506004,4.01423 -2.656881,0.39434 -4.426389,0.0851 -5.993347,-0.12342 0.655918,-1.90019 1.11685,-3.78276 1.485938,-5.50107 0.552145,-2.57054 1.1795,-4.7289 2.948986,-6.2929 1.995455,-1.76373 4.287011,-2.59422 6.092527,-2.94517 0.90276,-0.17546 1.68348,-0.22979 2.22224,-0.22596 0.26938,0.002 0.48217,0.0201 0.59705,0.038 0.009,9.7e-4 0.004,5e-4 0.0114,0.002 a 0.73255099,0.72924393 0 0 0 1.05485,-0.91527 c -0.10121,-0.234 -0.23308,-0.30986 -0.31665,-0.36078 -0.0836,-0.051 -0.14521,-0.0736 -0.20219,-0.093 -0.11396,-0.0388 -0.21141,-0.0569 -0.32237,-0.0741 -0.22191,-0.0344 -0.48735,-0.0528 -0.81068,-0.055 -0.64667,-0.005 -1.51323,0.0599 -2.51408,0.25445 -2.001706,0.38907 -4.544543,1.30483 -6.784958,3.28508 -2.141235,1.89256 -2.844714,4.45151 -3.408691,7.07713 -0.408179,1.90029 -0.8855,3.83999 -1.594666,5.74222 -1.02362,-0.0139 -2.038341,0.10473 -3.072973,0.78044 l -0.02289,0.0133 -0.01907,0.0152 c -0.974464,0.73766 -1.532399,1.4883 -1.684317,2.27107 -0.151918,0.78277 0.247635,1.57987 0.894614,1.91598 1.293959,0.67219 3.138897,-0.0421 4.31666,-2.10967 0.264192,-0.46378 0.353236,-0.9317 0.560803,-1.39947 0.133934,0.0164 0.221921,0.004 0.366239,0.0228 1.522913,0.20247 3.541839,0.54547 6.411088,0.11962 3.438391,-0.51032 7.365271,-0.92271 12.133571,-4.26299 2.03353,-1.42452 3.24741,-2.9142 3.81689,-4.4187 0.5695,-1.5045 0.46384,-2.99464 -0.0172,-4.29717 -0.96198,-2.60505 -3.29663,-4.54273 -4.97664,-5.53904 -1.38595,-0.82192 -2.74911,-1.4556 -4.77064,-1.56469 -2.01527,-0.10873 -4.667516,0.26283 -8.846967,1.28366 -0.0063,-0.005 -0.024,-0.0131 -0.06676,-0.0817 -0.10529,-0.16871 -0.228412,-0.56026 -0.25751,-1.0216 -0.0538,-0.853 0.227415,-1.87597 0.717216,-2.48944 0.03957,0.002 0.05104,-4.6e-4 0.09919,0.004 0.294537,0.0261 0.736005,0.0907 1.266576,0.18229 1.06114,0.18318 2.486899,0.48054 3.977125,0.82602 2.98045,0.69097 6.30147,1.61589 7.39535,2.10966 2.73067,1.23258 3.69633,2.21329 5.11972,3.50153 1.39194,1.25978 2.68173,2.53125 5.65572,7.23095 l -0.0534,-0.10064 c 0.14422,0.33539 0.38984,0.65528 0.763,0.80133 0.37314,0.14605 0.7634,0.0671 1.0453,-0.0665 0.56381,-0.26701 0.9463,-0.72854 1.31618,-1.25136 0.36986,-0.52283 0.68811,-1.11399 0.90987,-1.66723 0.11088,-0.27661 0.19815,-0.54275 0.24988,-0.80322 0.0518,-0.26046 0.0958,-0.51072 -0.0172,-0.845 l -0.006,-0.0152 -0.006,-0.0133 c -0.4642,-1.20996 -1.6475,-2.09291 -2.90702,-3.01353 -1.25952,-0.92062 -2.63791,-1.82642 -3.50407,-2.63185 -3.09237,-2.87562 -7.99851,-4.56805 -12.12021,-5.75742 -2.06086,-0.59468 -3.929036,-1.05643 -5.247516,-1.43555 -0.65924,-0.18956 -1.185049,-0.36194 -1.491666,-0.49751 -0.05558,-0.0246 -0.05417,-0.0284 -0.09346,-0.0494 0.09974,-1.39242 0.223683,-2.8996 0.522653,-4.15095 0.320293,-1.34063 0.841163,-2.30807 1.447783,-2.64515 -0.004,0.002 0.0638,-0.006 0.0649,-0.006 0.4456,0.29654 0.963786,0.57401 1.745356,0.91147 0.91386,0.39458 2.05363,0.84026 3.34384,1.32352 2.58041,0.96652 5.75817,2.08393 8.85459,3.21861 1.67102,0.61235 2.98859,1.18565 4.50168,1.78495 -0.40472,1.47835 -0.76701,3.14968 -0.24225,4.77379 0.43305,1.34024 1.29166,2.48579 2.45685,3.13316 1.1652,0.64736 2.65426,0.7426 4.08777,0.0265 l 0.17357,-0.0873 0.10873,-0.16141 c -0.0199,0.0299 0.11844,-0.11146 0.34526,-0.28483 0.22683,-0.17336 0.53154,-0.40579 0.82404,-0.73296 0.58499,-0.65436 1.07295,-1.71805 0.9442,-3.2471 -0.0356,-0.42314 -0.25333,-0.72197 -0.49785,-0.98172 -0.24452,-0.25975 -0.54606,-0.49447 -0.90797,-0.73486 -0.7238,-0.48078 -1.68916,-0.97862 -2.84025,-1.50582 -0.74379,-0.34065 -1.85495,-0.72419 -2.72962,-1.08236 0.18239,-0.61151 0.37418,-1.2128 0.45779,-1.73748 0.0526,-0.33055 0.0809,-0.64881 0.01,-0.98742 -0.0713,-0.33861 -0.30387,-0.72412 -0.66381,-0.91716 l -0.0668,-0.0361 -0.0744,-0.0228 c -1.574,-0.46087 -6.1239,-1.71166 -10.53891,-2.72679 -2.2075,-0.50757 -4.3768,-0.95542 -6.1345,-1.21529 -0.87885,-0.12993 -1.65269,-0.21234 -2.296626,-0.22977 -0.14472,-0.004 -0.23723,0.0572 -0.36814,0.057 -0.0272,-0.0388 -0.0916,-0.0976 -0.0916,-0.46903 2e-5,-0.44818 0.12309,-1.09463 0.33381,-1.75646 0.421436,-1.32369 1.275756,-2.77046 1.659516,-3.09898 -0.0982,0.0841 -0.0646,0.0354 0.0591,0.0133 0.1237,-0.0222 0.32684,-0.0399 0.58178,-0.0418 0.10272,-7.6e-4 0.29708,0.0248 0.41584,0.0285 2.81157,1.72459 7.93795,3.34199 12.92137,4.94849 1.97209,0.63574 3.79709,1.26594 5.54508,1.88748 -0.10912,1.00843 -0.26075,2.00715 -0.19647,2.99264 0.0603,0.92314 0.41022,1.99086 1.09872,2.89581 0.68849,0.90494 1.78534,1.64129 3.17597,1.62733 1.33222,-0.0134 2.7144,-0.77901 3.5613,-1.91977 0.42344,-0.57038 0.70742,-1.28016 0.62375,-2.0432 -0.0837,-0.76303 -0.54919,-1.50219 -1.3467,-2.09067 -1.17686,-0.86838 -3.11441,-1.69612 -5.38103,-2.51982 0.0162,-0.19283 0.0273,-0.36904 0.0382,-0.55636 0.0438,-0.75983 0.0439,-1.4702 -0.16214,-2.11916 -0.20596,-0.64896 -0.77268,-1.27007 -1.54125,-1.38998 -1.18854,-0.18544 -5.87618,-1.21781 -10.34625,-2.05459 -2.23504,-0.41839 -4.43134,-0.79097 -6.17456,-0.99122 -0.30486,-0.035 -0.50848,-0.0293 -0.78398,-0.0532 -0.16,-1.06175 0.18066,-2.24441 0.88699,-3.19202 0.40815,-0.54759 0.89109,-0.99538 1.30091,-1.25326 0.40981,-0.25789 0.70794,-0.25871 0.70386,-0.26015 0.7917,0.27973 2.0738,0.41887 3.7673,0.57346 1.63879,0.14961 3.60627,0.27798 5.54127,0.39877 2.96413,1.44321 5.05076,2.48849 8.2461,4.03702 -0.38941,1.49573 -0.86147,3.19749 -0.33381,4.81747 0.23946,0.7352 0.69603,1.67105 1.54507,2.42678 0.84904,0.75571 2.10825,1.29075 3.73868,1.18869 l 0.0897,-0.006 0.0858,-0.0265 c 3.4526,-1.09268 3.90816,-5.57428 1.22652,-6.91384 -1.26918,-0.63399 -2.92664,-1.43845 -4.70961,-2.30524 0.13546,-0.59894 0.29163,-1.19836 0.27659,-1.76977 -0.0204,-0.77429 -0.34757,-1.61387 -1.11207,-2.05268 l -0.0305,-0.0171 -0.0305,-0.0152 c -0.38562,-0.17617 -0.7025,-0.19248 -1.23224,-0.25824 -0.52974,-0.0658 -1.20118,-0.12774 -1.97617,-0.18799 -1.51937,-0.11812 -3.44447,-0.23189 -5.3982,-0.35319 -2.31088,-1.1261 -5.60271,-2.70289 -6.54653,-3.20532 0.004,-0.27406 -0.0142,-0.53589 0.1526,-0.79563 0.23504,-0.36578 0.71801,-0.82138 1.53935,-1.38619 1.64269,-1.12961 4.57032,-2.68704 9.19413,-5.35674 4.51794,-2.60857 8.33751,-3.43567 11.15692,-3.23 2.81942,0.20566 4.60235,1.41901 5.29331,2.87111 0.10238,0.21517 -0.0677,1.14443 -0.0629,1.6881 -0.22339,0.11289 -0.54109,0.18886 -0.74774,0.30762 -1.07845,0.61984 -1.91262,1.74744 -2.63425,3.09328 -0.72163,1.34586 -1.31541,2.92874 -1.76824,4.50985 -0.45284,1.5811 -0.76283,3.15682 -0.90415,4.49276 -0.14133,1.33593 -0.18555,2.37209 0.18884,3.19202 0.0647,0.14157 0.16367,0.29605 0.3338,0.42155 0.17013,0.1255 0.41195,0.19387 0.61231,0.18229 0.40074,-0.0231 0.61229,-0.21187 0.80496,-0.38927 0.38536,-0.35478 0.71547,-0.85327 1.09681,-1.50961 0.76269,-1.31266 1.63658,-3.23044 2.43397,-5.32826 0.79738,-2.09783 1.51328,-4.36657 1.93038,-6.36506 0.1278,-0.61231 0.17212,-1.1328 0.24416,-1.68241 4.45278,-1.88126 12.05691,-2.97954 18.49125,-2.96226 6.09268,0.0164 13.44036,1.34165 19.25805,1.95396 4.22029,0.44417 7.48338,0.25208 9.43256,0.0968 2.20085,-0.17527 4.58136,0.1259 6.36721,0.60384 0.89293,0.23898 1.64101,0.52423 2.11732,0.78614 0.23815,0.13096 0.40693,0.25953 0.4826,0.33611 0.0757,0.0766 0.0264,0.0722 0.0248,-0.055 0.008,0.63087 -0.083,1.00333 -0.4845,1.49062 -0.40143,0.48729 -1.18453,1.07273 -2.55413,1.80394 -2.73921,1.46238 -7.75156,3.50508 -16.48457,7.09992 -8.92488,3.67381 -17.85962,10.00482 -25.177,17.0045 -7.31739,6.99968 -13.01784,14.64779 -15.42591,21.10418 a 0.7327262,0.72941835 0 1 0 1.3734,0.50889 c 2.27511,-6.09993 7.86373,-13.67038 15.0692,-20.563 7.20546,-6.89261 16.02725,-13.12764 24.72112,-16.70637 8.73072,-3.5939 13.72499,-5.61905 16.61618,-7.16258 1.44559,-0.77177 2.38297,-1.4221 2.99477,-2.16473 0.61178,-0.74263 0.8266,-1.59328 0.8164,-2.43437 -0.005,-0.41408 -0.21947,-0.71987 -0.44635,-0.94944 -0.22688,-0.22956 -0.49922,-0.41319 -0.81832,-0.58865 -0.63819,-0.35093 -1.46936,-0.65835 -2.4435,-0.91906 -1.94828,-0.52143 -4.45159,-0.84162 -6.86507,-0.64942 -1.91618,0.15261 -5.06364,0.34017 -9.16169,-0.0911 -5.72423,-0.60247 -13.10795,-1.94648 -19.40875,-1.96344 -6.29734,-0.0169 -13.54412,0.91092 -18.43212,2.81605 -0.0269,-0.58363 -0.0462,-1.16899 -0.26704,-1.63304 -0.9702,-2.03896 -3.31196,-3.46762 -6.51028,-3.70093 z m 5.06248,7.6411 c -0.045,0.30191 0.0406,0.36099 -0.0267,0.6836 -0.39388,1.88718 -1.08941,4.1029 -1.86552,6.14478 -0.77613,2.04189 -1.63666,3.91873 -2.33096,5.11369 -0.11624,0.20006 -0.17065,0.2328 -0.2766,0.39118 -0.0338,-0.44908 -0.11325,-0.69334 -0.0382,-1.40328 0.13029,-1.23161 0.4276,-2.74181 0.85837,-4.2459 0.43078,-1.5041 0.99707,-3.00541 1.64998,-4.22312 0.6383,-1.19043 1.3747,-2.06352 2.02958,-2.46095 z m -17.21895,9.47543 c 0.59371,0.0396 1.32552,0.0798 1.83692,0.11962 0.76341,0.0593 1.42035,0.11969 1.9094,0.1804 0.45762,0.0568 0.77114,0.14423 0.75155,0.12723 0.27761,0.16576 0.35752,0.33071 0.37006,0.80702 0.007,0.25866 -0.10926,0.69751 -0.17549,1.06338 -1.85414,-0.89871 -2.81418,-1.38889 -4.69244,-2.29765 z m 5.77208,4.44908 c 1.60138,0.77872 3.17946,1.54631 4.33764,2.12484 1.38552,0.69211 1.39402,3.3666 -0.9404,4.17566 -1.21119,0.0495 -1.99845,-0.30055 -2.56748,-0.80703 -0.58799,-0.52336 -0.94614,-1.23437 -1.12733,-1.79065 -0.3129,-0.96068 -0.0324,-2.32828 0.29757,-3.70282 z m -17.74923,1.08617 c 0.90866,0.15167 1.67049,0.24338 2.63234,0.42344 4.43701,0.83059 8.98345,1.84242 10.39203,2.06219 0.25078,0.0391 0.26772,0.0668 0.37005,0.38927 0.10234,0.32243 0.13504,0.90647 0.0954,1.59506 -0.003,0.0469 -0.008,0.11177 -0.0114,0.1595 -1.667,-0.57371 -3.35082,-1.14325 -5.19411,-1.73748 -2.97191,-0.95805 -5.79511,-1.9323 -8.28424,-2.89198 z m -8.833606,5.96438 c 0.016,0.0125 0.054,0.0257 0.0706,0.038 0.01,0.006 0.0109,0.0172 0.021,0.0228 z m 4.946126,0.64752 c 1.37081,0.24925 2.74536,0.49453 4.31094,0.8545 4.28094,0.98431 8.6162,2.17626 10.23561,2.64704 0.007,0.0721 0.0151,0.18871 -0.0172,0.39117 -0.0534,0.33552 -0.22512,0.8948 -0.37959,1.42417 -1.47214,-0.58 -2.75002,-1.13942 -4.35099,-1.72609 -3.1086,-1.13914 -6.28731,-2.25679 -8.84505,-3.21481 -0.37207,-0.13936 -0.61021,-0.24388 -0.95375,-0.37598 z m 18.69726,0.0418 c 2.08199,0.77853 3.75365,1.51404 4.61232,2.14764 0.56338,0.41571 0.72896,0.76812 0.763,1.07856 0.0341,0.31045 -0.0776,0.65538 -0.34526,1.01591 -0.5353,0.72105 -1.71848,1.3224 -2.39772,1.32921 -0.88529,0.009 -1.50768,-0.41175 -1.99333,-1.05007 -0.48564,-0.63833 -0.76543,-1.50167 -0.80496,-2.10776 -0.0436,-0.66747 0.0816,-1.57218 0.16595,-2.41349 z m -3.52314,7.24994 c 0.77626,0.32021 1.80359,0.67509 2.46067,0.97602 1.11366,0.51006 2.03206,0.98999 2.63997,1.39379 0.30395,0.20189 0.52857,0.38689 0.65237,0.51839 0.12379,0.1315 0.11452,0.19782 0.10681,0.10633 0.10113,1.2011 -0.20865,1.74 -0.57988,2.15524 -0.18561,0.20762 -0.39963,0.3766 -0.61994,0.54498 -0.13621,0.10411 -0.27719,0.25967 -0.41773,0.39307 -1.03698,0.50975 -1.91695,0.42947 -2.69338,-0.002 -0.78258,-0.43479 -1.44269,-1.27404 -1.77588,-2.30524 -0.34952,-1.08174 -0.1077,-2.45261 0.22699,-3.78068 z m -30.287191,24.65889 c 0.01168,-9.7e-4 0.02834,0.003 0.04006,0.002 -0.125013,0.25575 -0.165353,0.52634 -0.309014,0.77854 -0.926842,1.62706 -2.076623,1.68426 -2.365292,1.5343 -0.144335,-0.075 -0.183836,-0.0863 -0.133525,-0.3456 0.04955,-0.25531 0.346371,-0.77561 1.115884,-1.36719 0.581411,-0.37481 1.09635,-0.55192 1.65189,-0.60195 z m 61.451831,-61.51625 c -0.57871,-0.19101 -1.18199,-0.15642 -1.69195,0.0456 -1.01991,0.40399 -1.69737,1.32261 -2.24512,2.29574 -1.09549,1.94629 -1.63662,4.32757 -1.63662,4.32757 a 0.73255099,0.72924393 0 1 0 1.42679,0.3304 c 0,0 0.54533,-2.27138 1.48785,-3.94589 0.47126,-0.83724 1.05065,-1.47053 1.50883,-1.65202 0.2291,-0.0907 0.42171,-0.10581 0.69051,-0.0171 0.26881,0.0888 0.62386,0.30961 1.04149,0.76145 a 0.73255099,0.72924393 0 1 0 1.07774,-0.98741 c -0.53415,-0.57791 -1.0808,-0.96731 -1.65952,-1.15833 z m -4.94295,10.33489 c -1.202,0.0343 -2.33669,0.70066 -3.14305,1.84589 -0.42079,1.26948 -0.48762,0.83026 0.0533,1.98115 0.86598,1.09746 2.03358,1.69929 3.23464,1.66735 l 6.8e-4,-2e-5 9.2e-4,-2e-5 c 1.20206,-0.0342 2.33677,-0.7006 3.1432,-1.8459 0.36855,-1.36106 0.45063,-0.90237 -0.0533,-1.98116 -0.86605,-1.09753 -2.03368,-1.69937 -3.23483,-1.66734 l -9.2e-4,3e-5 z m 1.69067,-2.75645 a 0.73255099,0.72924393 0 0 0 -0.16214,1.44316 c 1.64734,0.3514 4.07053,1.38359 4.91752,5.53904 0.26466,1.29841 -0.62005,2.97787 -2.14402,4.32565 -1.52397,1.34778 -3.61368,2.28768 -5.22462,2.28056 -1.44249,-0.007 -2.67557,-0.61073 -3.588,-1.45834 -0.91244,-0.84761 -1.47063,-1.94698 -1.56224,-2.77427 -0.22634,-2.04385 0.55865,-4.06095 1.61756,-5.51815 0.52945,-0.72861 1.12605,-1.31305 1.65379,-1.67862 0.52775,-0.36556 0.98378,-0.46544 1.11589,-0.44623 a 0.73255099,0.72924393 0 1 0 0.21172,-1.44315 c -0.76121,-0.11072 -1.46771,0.21009 -2.16499,0.69309 -0.69728,0.483 -1.3895,1.17369 -2.00479,2.02041 -1.23057,1.69345 -2.16183,4.02869 -1.88459,6.53216 0.14244,1.28635 0.87524,2.62025 2.01812,3.68193 1.14288,1.06168 2.72873,1.84131 4.57989,1.84951 2.15022,0.01 4.45166,-1.09823 6.20508,-2.64893 1.75343,-1.55072 3.03287,-3.61954 2.60754,-5.70616 -0.95175,-4.66935 -4.03973,-6.24643 -6.04675,-6.67456 a 0.73255099,0.72924393 0 0 0 -0.14497,-0.0171 z"
         style="color:#000000;font-style:normal;font-variant:normal;font-weight:normal;font-stretch:normal;font-size:medium;line-height:normal;font-family:sans-serif;font-variant-ligatures:normal;font-variant-position:normal;font-variant-caps:normal;font-variant-numeric:normal;font-variant-alternates:normal;font-feature-settings:normal;text-indent:0;text-align:start;text-decoration:none;text-decoration-line:none;text-decoration-style:solid;text-decoration-color:#000000;letter-spacing:normal;word-spacing:normal;text-transform:none;writing-mode:lr-tb;direction:ltr;text-orientation:mixed;dominant-baseline:auto;baseline-shift:baseline;text-anchor:start;white-space:normal;shape-padding:0;clip-rule:nonzero;display:inline;overflow:visible;visibility:visible;opacity:1;isolation:auto;mix-blend-mode:normal;color-interpolation:sRGB;color-interpolation-filters:linearRGB;solid-color:#000000;solid-opacity:1;vector-effect:none;fill:#ffffff;fill-opacity:1;fill-rule:nonzero;stroke:none;stroke-width:1.46164501;stroke-linecap:round;stroke-linejoin:miter;stroke-miterlimit:4;stroke-dasharray:none;stroke-dashoffset:0;stroke-opacity:1;color-rendering:auto;image-rendering:auto;shape-rendering:auto;text-rendering:auto;enable-background:accumulate"
         id="path1140"
         inkscape:connector-curvature="0" />
    </g>
  </g>
</svg>
