<?xml version="1.0" encoding="UTF-8" standalone="no"?>
<!-- Created with Inkscape (http://www.inkscape.org/) -->

<svg
   xmlns:dc="http://purl.org/dc/elements/1.1/"
   xmlns:cc="http://creativecommons.org/ns#"
   xmlns:rdf="http://www.w3.org/1999/02/22-rdf-syntax-ns#"
   xmlns:svg="http://www.w3.org/2000/svg"
   xmlns="http://www.w3.org/2000/svg"
   xmlns:sodipodi="http://sodipodi.sourceforge.net/DTD/sodipodi-0.dtd"
   xmlns:inkscape="http://www.inkscape.org/namespaces/inkscape"
   width="350"
   height="100"
   viewBox="0 0 92.604173 26.458334"
   version="1.1"
   id="svg4491"
   sodipodi:docname="final.svg"
   inkscape:version="0.92.1 r15371">
  <defs
     id="defs4485">
    <inkscape:path-effect
       effect="skeletal"
       id="path-effect5596"
       is_visible="true"
       pattern="m 87.349057,32.819391 a 11.034744,9.8441971 0 0 0 -6.24841,1.74289 11.034744,9.8441971 0 0 0 6.24841,1.73133 11.034744,9.8441971 0 0 0 6.24841,-1.7429 11.034744,9.8441971 0 0 0 -6.24841,-1.73132 z"
       copytype="single_stretched"
       prop_scale="0.15556112"
       scale_y_rel="false"
       spacing="0"
       normal_offset="0"
       tang_offset="0"
       prop_units="false"
       vertical_pattern="false"
       fuse_tolerance="0" />
    <inkscape:path-effect
       effect="skeletal"
       id="path-effect5606"
       is_visible="true"
       pattern="m 87.349057,32.819391 a 11.034744,9.8441971 0 0 0 -6.24841,1.74289 11.034744,9.8441971 0 0 0 6.24841,1.73133 11.034744,9.8441971 0 0 0 6.24841,-1.7429 11.034744,9.8441971 0 0 0 -6.24841,-1.73132 z"
       copytype="single_stretched"
       prop_scale="0.12216196"
       scale_y_rel="false"
       spacing="0"
       normal_offset="0"
       tang_offset="0"
       prop_units="false"
       vertical_pattern="false"
       fuse_tolerance="0" />
    <inkscape:path-effect
       effect="skeletal"
       id="path-effect4696"
       is_visible="true"
       pattern="m 231.58909,84.253558 a 11.034744,9.8441971 0 0 0 -6.24841,1.74289 11.034744,9.8441971 0 0 0 6.24841,1.73133 11.034744,9.8441971 0 0 0 6.24841,-1.7429 11.034744,9.8441971 0 0 0 -6.24841,-1.73132 z"
       copytype="single_stretched"
       prop_scale="0.19223613"
       scale_y_rel="false"
       spacing="0"
       normal_offset="0"
       tang_offset="0"
       prop_units="false"
       vertical_pattern="false"
       fuse_tolerance="0" />
    <inkscape:path-effect
       effect="skeletal"
       id="path-effect4706"
       is_visible="true"
       pattern="m 231.58909,84.253558 a 11.034744,9.8441971 0 0 0 -6.24841,1.74289 11.034744,9.8441971 0 0 0 6.24841,1.73133 11.034744,9.8441971 0 0 0 6.24841,-1.7429 11.034744,9.8441971 0 0 0 -6.24841,-1.73132 z"
       copytype="single_stretched"
       prop_scale="0.18938658"
       scale_y_rel="false"
       spacing="0"
       normal_offset="0"
       tang_offset="0"
       prop_units="false"
       vertical_pattern="false"
       fuse_tolerance="0" />
    <inkscape:path-effect
       effect="skeletal"
       id="path-effect4716"
       is_visible="true"
       pattern="m 231.58909,84.253558 a 11.034744,9.8441971 0 0 0 -6.24841,1.74289 11.034744,9.8441971 0 0 0 6.24841,1.73133 11.034744,9.8441971 0 0 0 6.24841,-1.7429 11.034744,9.8441971 0 0 0 -6.24841,-1.73132 z"
       copytype="single_stretched"
       prop_scale="0.14474154"
       scale_y_rel="false"
       spacing="0"
       normal_offset="0"
       tang_offset="0"
       prop_units="false"
       vertical_pattern="false"
       fuse_tolerance="0" />
    <inkscape:path-effect
       effect="skeletal"
       id="path-effect4726"
       is_visible="true"
       pattern="m 231.58909,84.253558 a 11.034744,9.8441971 0 0 0 -6.24841,1.74289 11.034744,9.8441971 0 0 0 6.24841,1.73133 11.034744,9.8441971 0 0 0 6.24841,-1.7429 11.034744,9.8441971 0 0 0 -6.24841,-1.73132 z"
       copytype="single_stretched"
       prop_scale="0.15506575"
       scale_y_rel="false"
       spacing="0"
       normal_offset="0"
       tang_offset="0"
       prop_units="false"
       vertical_pattern="false"
       fuse_tolerance="0" />
    <inkscape:path-effect
       effect="skeletal"
       id="path-effect4738"
       is_visible="true"
       pattern="m 231.85367,83.939366 a 11.034744,9.8441971 0 0 0 -6.24841,1.74289 11.034744,9.8441971 0 0 0 6.24841,1.73133 11.034744,9.8441971 0 0 0 6.24841,-1.7429 11.034744,9.8441971 0 0 0 -6.24841,-1.73132 z"
       copytype="single_stretched"
       prop_scale="0.084992438"
       scale_y_rel="false"
       spacing="0"
       normal_offset="0"
       tang_offset="0"
       prop_units="false"
       vertical_pattern="false"
       fuse_tolerance="0" />
    <inkscape:path-effect
       effect="skeletal"
       id="path-effect4748"
       is_visible="true"
       pattern="m 231.53948,84.38585 a 11.034744,9.8441971 0 0 0 -6.24841,1.74289 11.034744,9.8441971 0 0 0 6.24841,1.73133 11.034744,9.8441971 0 0 0 6.24841,-1.7429 11.034744,9.8441971 0 0 0 -6.24841,-1.73132 z"
       copytype="single_stretched"
       prop_scale="0.10319147"
       scale_y_rel="false"
       spacing="0"
       normal_offset="0"
       tang_offset="0"
       prop_units="false"
       vertical_pattern="false"
       fuse_tolerance="0" />
    <inkscape:path-effect
       effect="skeletal"
       id="path-effect4758"
       is_visible="true"
       pattern="m 231.58909,84.253558 a 11.034744,9.8441971 0 0 0 -6.24841,1.74289 11.034744,9.8441971 0 0 0 6.24841,1.73133 11.034744,9.8441971 0 0 0 6.24841,-1.7429 11.034744,9.8441971 0 0 0 -6.24841,-1.73132 z"
       copytype="single_stretched"
       prop_scale="0.13131001"
       scale_y_rel="false"
       spacing="0"
       normal_offset="0"
       tang_offset="0"
       prop_units="false"
       vertical_pattern="false"
       fuse_tolerance="0" />
    <inkscape:path-effect
       effect="skeletal"
       id="path-effect4768"
       is_visible="true"
       pattern="m 231.58909,84.253558 a 11.034744,9.8441971 0 0 0 -6.24841,1.74289 11.034744,9.8441971 0 0 0 6.24841,1.73133 11.034744,9.8441971 0 0 0 6.24841,-1.7429 11.034744,9.8441971 0 0 0 -6.24841,-1.73132 z"
       copytype="single_stretched"
       prop_scale="0.10319147"
       scale_y_rel="false"
       spacing="0"
       normal_offset="0"
       tang_offset="0"
       prop_units="false"
       vertical_pattern="false"
       fuse_tolerance="0" />
    <inkscape:path-effect
       effect="skeletal"
       id="path-effect4778"
       is_visible="true"
       pattern="m 231.58909,84.253558 a 11.034744,9.8441971 0 0 0 -6.24841,1.74289 11.034744,9.8441971 0 0 0 6.24841,1.73133 11.034744,9.8441971 0 0 0 6.24841,-1.7429 11.034744,9.8441971 0 0 0 -6.24841,-1.73132 z"
       copytype="single_stretched"
       prop_scale="0.10319147"
       scale_y_rel="false"
       spacing="0"
       normal_offset="0"
       tang_offset="0"
       prop_units="false"
       vertical_pattern="false"
       fuse_tolerance="0" />
    <inkscape:path-effect
       effect="skeletal"
       id="path-effect4788"
       is_visible="true"
       pattern="m 231.58909,84.253558 a 11.034744,9.8441971 0 0 0 -6.24841,1.74289 11.034744,9.8441971 0 0 0 6.24841,1.73133 11.034744,9.8441971 0 0 0 6.24841,-1.7429 11.034744,9.8441971 0 0 0 -6.24841,-1.73132 z"
       copytype="single_stretched"
       prop_scale="0.15197146"
       scale_y_rel="false"
       spacing="0"
       normal_offset="0"
       tang_offset="0"
       prop_units="false"
       vertical_pattern="false"
       fuse_tolerance="0" />
    <inkscape:path-effect
       effect="skeletal"
       id="path-effect4798"
       is_visible="true"
       pattern="m 231.58909,84.253558 a 11.034744,9.8441971 0 0 0 -6.24841,1.74289 11.034744,9.8441971 0 0 0 6.24841,1.73133 11.034744,9.8441971 0 0 0 6.24841,-1.7429 11.034744,9.8441971 0 0 0 -6.24841,-1.73132 z"
       copytype="single_stretched"
       prop_scale="0.13165462"
       scale_y_rel="false"
       spacing="0"
       normal_offset="0"
       tang_offset="0"
       prop_units="false"
       vertical_pattern="false"
       fuse_tolerance="0" />
    <inkscape:path-effect
       effect="skeletal"
       id="path-effect4808"
       is_visible="true"
       pattern="m 231.58909,84.253558 a 11.034744,9.8441971 0 0 0 -6.24841,1.74289 11.034744,9.8441971 0 0 0 6.24841,1.73133 11.034744,9.8441971 0 0 0 6.24841,-1.7429 11.034744,9.8441971 0 0 0 -6.24841,-1.73132 z"
       copytype="single_stretched"
       prop_scale="0.17585405"
       scale_y_rel="false"
       spacing="0"
       normal_offset="0"
       tang_offset="0"
       prop_units="false"
       vertical_pattern="false"
       fuse_tolerance="0" />
    <inkscape:path-effect
       effect="skeletal"
       id="path-effect4818"
       is_visible="true"
       pattern="m 231.58909,84.253558 a 11.034744,9.8441971 0 0 0 -6.24841,1.74289 11.034744,9.8441971 0 0 0 6.24841,1.73133 11.034744,9.8441971 0 0 0 6.24841,-1.7429 11.034744,9.8441971 0 0 0 -6.24841,-1.73132 z"
       copytype="single_stretched"
       prop_scale="0.11726963"
       scale_y_rel="false"
       spacing="0"
       normal_offset="0"
       tang_offset="0"
       prop_units="false"
       vertical_pattern="false"
       fuse_tolerance="0" />
    <inkscape:path-effect
       fuse_tolerance="0"
       vertical_pattern="false"
       prop_units="false"
       tang_offset="0"
       normal_offset="0"
       spacing="0"
       scale_y_rel="false"
       prop_scale="0.11726963"
       copytype="single_stretched"
       pattern="m 238.26982,86.734027 a 11.034744,9.8441971 0 0 0 -6.24841,1.74289 11.034744,9.8441971 0 0 0 6.24841,1.73133 11.034744,9.8441971 0 0 0 6.24841,-1.7429 11.034744,9.8441971 0 0 0 -6.24841,-1.73132 z"
       is_visible="true"
       id="path-effect4875"
       effect="skeletal" />
  </defs>
  <sodipodi:namedview
     id="base"
     pagecolor="#ffffff"
     bordercolor="#666666"
     borderopacity="1.0"
     inkscape:pageopacity="0.0"
     inkscape:pageshadow="2"
     inkscape:zoom="1.4"
     inkscape:cx="151.42857"
     inkscape:cy="64.285714"
     inkscape:document-units="px"
     inkscape:current-layer="layer1"
     showgrid="false"
     units="px"
     inkscape:window-width="1920"
     inkscape:window-height="1027"
     inkscape:window-x="-8"
     inkscape:window-y="-8"
     inkscape:window-maximized="1" />
  <metadata
     id="metadata4488">
    <rdf:RDF>
      <cc:Work
         rdf:about="">
        <dc:format>image/svg+xml</dc:format>
        <dc:type
           rdf:resource="http://purl.org/dc/dcmitype/StillImage" />
        <dc:title></dc:title>
      </cc:Work>
    </rdf:RDF>
  </metadata>
  <g
     inkscape:label="Layer 1"
     inkscape:groupmode="layer"
     id="layer1"
     transform="translate(0,-270.54167)">
    <text
       xml:space="preserve"
       style="font-style:normal;font-weight:normal;font-size:11.43079758px;line-height:0.75;font-family:sans-serif;letter-spacing:-0.24861984px;word-spacing:0px;display:inline;opacity:1;fill:#ffffff;fill-opacity:1;stroke:none;stroke-width:0.28576994;"
       x="88.451302"
       y="282.49854"
       id="text5096"><tspan
         sodipodi:role="line"
         id="tspan5094"
         x="88.202682"
         y="282.49854"
         style="font-style:normal;font-variant:normal;font-weight:normal;font-stretch:normal;font-size:10.23055553px;line-height:0.75;font-family:crushed;-inkscape-font-specification:crushed;text-align:end;letter-spacing:-0.24861984px;text-anchor:end;stroke-width:0.28576994;fill:#ffffff;fill-opacity:1;">POOR PETER'S</tspan><tspan
         id="tspan5140"
         sodipodi:role="line"
         x="88.202682"
         y="293.0719"
         style="font-style:normal;font-variant:normal;font-weight:normal;font-stretch:normal;font-size:13.716959px;line-height:0.55000001;font-family:crushed;-inkscape-font-specification:crushed;text-align:end;letter-spacing:-0.24861984px;text-anchor:end;stroke-width:0.28576994;fill:#ffffff;fill-opacity:1;">ANTALMANAC</tspan></text>
    <g
       style="display:inline;opacity:1;fill:#ffffff;fill-opacity:1"
       transform="translate(-40.900152,206.41512)"
       id="g5138">
      <g
         transform="translate(6.6145833,42.068751)"
         id="g5136"
         style="fill:#ffffff;fill-opacity:1">
        <path
           inkscape:connector-curvature="0"
           id="path5098"
           d="m 68.459462,32.770265 c -2.7914,1.75829 -5.12616,4.01263 -6.8459,6.58003 0,0 0,0 0,0 -0.87749,1.31076 -1.57476,2.65437 -2.0796,4.0078 -0.16,0.4289 -0.29976,0.85435 -0.4085,1.28223 -0.0329,0.12942 -0.0631,0.25856 -0.0863,0.38849 -0.0115,0.0636 -0.0268,0.12871 -0.0226,0.19295 0.004,-0.0642 0.0272,-0.12444 0.0465,-0.18708 0.0391,-0.12519 0.0846,-0.24824 0.13254,-0.37191 0.15865,-0.40874 0.34347,-0.80956 0.54598,-1.21435 0.63879,-1.27658 1.43082,-2.52255 2.36944,-3.7408 0,0 0,0 0,0 1.83266,-2.37967 4.14579,-4.46469 6.83846,-6.15876 1.43428,-0.90275 2.94066,-1.67175 4.48417,-2.30387 0,0 0,0 0,0 v 0 c 1.817605,-0.73336 3.627205,-1.37086 5.069805,-2.65028 v 0 c 0.23954,-0.16281 0.51938,-0.47542 0.50344,-0.90755 v 0 0 0 c -0.0982,-0.35325 -0.37734,-0.51442 -0.60668,-0.56276 v 0 c -0.74656,-0.23844 -1.52258,-0.19511 -2.22084,-0.16134 v 0 c -0.32912,0.0151 -0.65353,0.0396 -0.97196,0.0712 v 0 10e-6 0 c -0.10004,0.01 -0.19943,0.0206 -0.29827,0.0322 0,0 0,0 0,0 v 0 c 0,0 0,0 -1e-5,0 -0.0275,0.005 -0.055,0.008 -0.0826,0.0103 -0.0102,8.3e-4 -0.0208,0.002 -0.031,0.002 -5e-5,0 -8e-5,0 -8e-5,0 0,0 3e-5,0 8e-5,0 0.0102,-5.4e-4 0.0208,-8.7e-4 0.031,-0.001 0.0277,-3.3e-4 0.0555,7.3e-4 0.0834,0.003 0,0 0,0 0,0 v 0 c 0,0 1e-5,0 1e-5,0 0.0995,9.9e-4 0.19918,0.003 0.29934,0.005 v 0 0 0 c 0.31915,0.008 0.64255,0.0216 0.96828,0.0435 v 0 c 0.69879,0.0483 1.45803,0.0826 2.0864,0.35849 v 0 c 0.16734,0.10043 0.34785,0.18032 0.30089,0.25228 v 0 0 0 c 0.0519,0.12474 -0.18906,0.2561 -0.3895,0.45789 v 0 c -1.42691,1.09613 -3.16251,1.5701 -5.042195,2.27316 v 0 c 0,0 0,0 0,0 -1.61491,0.59497 -3.18791,1.36313 -4.67381,2.2987 z"
           style="opacity:1;fill:#ffffff;stroke:none;stroke-width:0.26458332px;stroke-linecap:butt;stroke-linejoin:miter;stroke-opacity:1;fill-opacity:1" />
        <path
           inkscape:connector-curvature="0"
           id="path5100"
           d="m 61.330392,29.296715 c -0.36223,0.12658 -0.62688,0.47971 -0.75899,1.01292 0.46466,0.3257 0.9075,0.43318 1.27011,0.30826 0.36224,-0.12659 0.62688,-0.47971 0.75899,-1.01293 -0.46466,-0.32568 -0.9075,-0.43316 -1.27011,-0.30825 z"
           style="opacity:1;fill:#ffffff;stroke:none;stroke-width:0.39643422px;stroke-linecap:butt;stroke-linejoin:miter;stroke-opacity:1;fill-opacity:1" />
        <path
           style="opacity:1;fill:#ffffff;stroke:none;stroke-width:0.26458332px;stroke-linecap:butt;stroke-linejoin:miter;stroke-opacity:1;fill-opacity:1"
           d="m 61.322564,32.141033 c 0,0 -0.0024,-1.16e-4 -0.0024,-1.16e-4 -0.865359,-0.01076 -1.619541,-0.931246 -1.810376,-1.816724 -0.167275,-0.755355 0.247749,-1.572027 0.829662,-2.074217 0.248351,-0.212423 0.51704,-0.3889 0.807056,-0.51174 0.09603,-0.04035 0.190992,-0.07651 0.291585,-0.08986 0.05057,-0.0037 0.116152,-0.01486 0.13549,0.03281 -0.01117,-0.05016 -0.0853,-0.05992 -0.136742,-0.05807 -0.105285,-0.0031 -0.211004,0.018 -0.314025,0.04434 -0.314575,0.07965 -0.621774,0.223319 -0.909807,0.414363 -0.699366,0.461161 -1.26184,1.33005 -1.142073,2.314802 0.135196,1.091223 1.005811,2.20191 2.225178,2.28421 1e-6,0 0.0031,1.24e-4 0.0031,1.24e-4 1.466219,0.05733 2.75104,-1.1643 2.851781,-2.498085 0.0922,-1.348774 -1.055504,-2.38681 -2.049225,-2.434386 0.961606,0.211818 1.818372,1.326227 1.654356,2.392386 -0.154185,1.072605 -1.315411,2.054228 -2.433565,2.00016 z"
           id="path5102"
           inkscape:connector-curvature="0"
           inkscape:path-effect="#path-effect5596"
           inkscape:original-d="m 61.572725,27.681448 c -0.08206,-0.270143 -2.613519,0.670451 -2.282031,2.678906 0.156144,0.946062 1.059537,2.007849 2.017448,2.050521 1.156353,0.05151 2.523407,-1.097951 2.645833,-2.248958 0.10728,-1.008607 -0.859895,-2.282032 -1.852083,-2.414323"
           sodipodi:nodetypes="csaac" />
        <path
           style="opacity:1;fill:#ffffff;stroke:none;stroke-width:0.26458332px;stroke-linecap:butt;stroke-linejoin:miter;stroke-opacity:1;fill-opacity:1"
           d="m 62.995318,25.900364 c -0.0225,0.104956 -0.03379,0.208933 -0.03716,0.30794 0,0 0,0 0,0 0.06216,0.641587 0.177631,1.255622 0.335017,1.770542 0.08161,-0.532384 0.109083,-1.136812 0.07969,-1.763148 0,0 0,0 0,0 0.0161,-0.08352 0.03213,-0.171053 0.04934,-0.251364 0.04804,-0.22497 0.108693,-0.415421 0.255747,-0.512241 0.215689,-0.23159 0.748357,-0.08512 1.119748,0.0294 -0.28065,-0.26028 -0.775323,-0.612573 -1.326332,-0.337878 -0.267673,0.181176 -0.413938,0.467885 -0.476046,0.756751 z"
           id="path5104"
           inkscape:connector-curvature="0"
           inkscape:path-effect="#path-effect5606"
           inkscape:original-d="m 63.292517,27.979104 c 0,0 -0.843359,-3.852995 1.504818,-2.497005"
           sodipodi:nodetypes="cc" />
        <path
           style="opacity:1;fill:#ffffff;stroke:none;stroke-width:0.99999994px;stroke-linecap:butt;stroke-linejoin:miter;stroke-opacity:1;fill-opacity:1"
           d="m 250.91602,97.082031 c -4.62044,0.03402 -9.30987,0.417819 -13.97071,1.226563 -4.27748,0.743335 -8.46249,1.834026 -12.49023,3.292966 0.1652,0.74902 0.20205,1.51039 0.0976,2.26172 -0.0565,0.3996 -0.15191,0.79117 -0.2832,1.17188 0.37853,-0.12582 0.74411,-0.26579 1.12695,-0.38672 3.91321,-1.24279 7.93125,-2.20523 12.03907,-2.92383 4.44211,-0.77828 8.92294,-1.26102 13.38086,-1.51758 10.23254,0.74049 19.97787,1.15173 28.64648,1.20899 -8.52442,-1.608866 -18.25949,-3.084968 -28.54687,-4.333989 z"
           transform="scale(0.26458333)"
           id="path5106"
           inkscape:connector-curvature="0" />
        <path
           style="fill:#ffffff;stroke:none;stroke-width:0.26458332px;stroke-linecap:butt;stroke-linejoin:miter;stroke-opacity:1;fill-opacity:1"
           d="m 54.376602,27.123903 c 1.010652,-0.517106 2.087106,-0.916351 3.119362,-1.282656 0,0 0,0 0,0 l 0,0 c 0.425526,-0.162584 0.93924,-0.0973 1.37274,0.08612 l 0,0 c 0.16751,0.07152 0.327407,0.159087 0.477385,0.258327 l 0,0 c 0,0 0,0 10e-7,0 0.04783,0.03167 0.09447,0.0644 0.139729,0.09863 0.01836,0.01383 0.03802,0.02923 0.05551,0.04389 -0.01335,-0.01893 -0.02896,-0.03861 -0.04342,-0.05683 -0.03574,-0.04484 -0.07356,-0.08847 -0.113044,-0.131191 0,0 0,0 0,0 l 0,0 C 59.260251,26.005451 59.11808,25.87908 58.958624,25.767166 l 0,0 c -0.418087,-0.294608 -0.987139,-0.476927 -1.58246,-0.353775 l 0,0 c 0,0 0,0 0,0 -1.089299,0.228019 -2.227889,0.568811 -3.302883,1.115727 -0.03028,0.01542 -0.0605,0.031 -0.09065,0.04673 0,0 0,0 0,0 -1.892561,0.988406 -3.287246,2.45337 -4.039399,4.004814 1.119537,-1.312193 2.551449,-2.479799 4.347711,-3.412611 0,0 0,0 0,0 0.0285,-0.01481 0.05706,-0.02953 0.08566,-0.04415 z"
           id="path5108"
           inkscape:connector-curvature="0"
           inkscape:path-effect="#path-effect4696"
           inkscape:original-d="m 59.540967,26.329459 c 0,0 -0.935442,-1.028988 -2.104747,-0.701582 -1.169305,0.327405 -5.131239,1.339369 -7.49392,4.952175"
           sodipodi:nodetypes="csc" />
        <path
           style="fill:#ffffff;stroke:none;stroke-width:0.26458332px;stroke-linecap:butt;stroke-linejoin:miter;stroke-opacity:1;fill-opacity:1"
           d="m 57.417384,33.912717 c 0.148114,-0.226308 0.259462,-0.462387 0.355714,-0.679751 0,0 0,-10e-7 0,-10e-7 0.338722,-0.697742 0.585276,-1.420203 0.787097,-2.118657 0,0 0,0 0,0 0.24882,-1.012469 0.453478,-1.979573 0.606167,-2.86501 -0.364818,0.821458 -0.730549,1.735377 -1.084105,2.709297 0,0 0,0 0,0 -0.27149,0.660971 -0.554746,1.341847 -0.888661,1.983134 0,0 0,10e-7 0,10e-7 -0.119945,0.213002 -0.226478,0.428075 -0.339442,0.61522 -0.132839,0.220275 -0.274258,0.401172 -0.460661,0.498739 -0.463153,0.37522 -1.262378,-0.0746 -1.262762,-0.662211 0.03559,-0.374509 0.229369,-0.752716 0.544938,-0.955861 0.269987,-0.219107 0.732272,-0.02065 0.946153,0.309296 -0.127262,-0.373649 -0.564573,-0.734373 -1.070362,-0.544619 -0.437286,0.194297 -0.777829,0.633485 -0.881173,1.15569 1.03e-4,0.963189 1.036801,1.730683 2.045726,1.256326 0.303577,-0.185449 0.527297,-0.43581 0.701371,-0.701593 z"
           id="path5110"
           inkscape:connector-curvature="0"
           inkscape:path-effect="#path-effect4706"
           inkscape:original-d="m 59.167447,28.24947 c 0,0 -1.372443,5.369319 -2.61276,6.085416 -0.871112,0.502937 -1.653646,0.06615 -1.653646,-0.959114 0.137161,-0.884385 1.190625,-1.719792 1.719792,-0.628386"
           sodipodi:nodetypes="cscc" />
        <path
           style="fill:#ffffff;stroke:none;stroke-width:0.26458332px;stroke-linecap:butt;stroke-linejoin:miter;stroke-opacity:1;fill-opacity:1"
           d="m 55.657796,37.689143 c 0.379035,-0.03899 0.704875,-0.255276 0.90091,-0.55511 0.224478,-0.349799 0.322793,-0.732369 0.38905,-1.081268 0.07326,-0.36872 0.107764,-0.718452 0.175985,-1.046096 0.0643,-0.238748 0.09342,-0.486245 0.307182,-0.573377 -0.230709,0.02111 -0.389268,0.284755 -0.480052,0.516205 -0.150945,0.330851 -0.242053,0.656733 -0.362509,1.0068 -0.114964,0.326885 -0.230858,0.658373 -0.421058,0.905732 -0.137864,0.180927 -0.347464,0.317261 -0.553227,0.329841 -0.01721,0.0011 -0.03442,0.0013 -0.05158,5.58e-4 0,0 0,0 0,0 -0.492097,0.0013 -1.011565,-0.312979 -1.165679,-0.761632 0,0 0,0 0,0 -0.214561,-0.500635 0.148098,-1.143529 0.603067,-1.468274 -0.535264,0.179499 -1.128853,0.776955 -0.974501,1.574284 0,0 0,0 0,0 0.16331,0.664685 0.810878,1.157198 1.537113,1.158274 0,-10e-7 0,0 0,0 0.03206,-7.17e-4 0.06384,-0.0027 0.0953,-0.0059 z"
           id="path5112"
           inkscape:connector-curvature="0"
           inkscape:path-effect="#path-effect4716"
           inkscape:original-d="m 57.43112,34.434105 c -0.722134,0.175219 -0.422174,3.009635 -1.868621,3.009635 -1.387501,0 -2.027889,-1.733277 -0.562239,-2.480468"
           sodipodi:nodetypes="ccc" />
        <path
           style="fill:#ffffff;stroke:none;stroke-width:0.26458332px;stroke-linecap:butt;stroke-linejoin:miter;stroke-opacity:1;fill-opacity:1"
           d="m 54.768028,40.111834 c 0.02432,1.04e-4 0.04854,-2.73e-4 0.07265,-0.0011 0,0 0,0 0,0 0.820066,-0.06362 1.376045,-0.702803 1.577394,-1.363698 0.214913,-0.653237 0.199516,-1.274545 0.549421,-1.717347 -0.508006,0.343192 -0.652882,0.984798 -0.921774,1.572881 -0.253754,0.514009 -0.707415,0.987618 -1.216599,0.969759 0,0 0,0 0,0 -0.01848,-4.35e-4 -0.03699,-0.0011 -0.05549,-0.0019 -0.329378,-0.01435 -0.652756,-0.08939 -0.833656,-0.297611 0,0 0,0 0,0 -0.187351,-0.181512 -0.278011,-0.481121 -0.318692,-0.779345 -0.03878,-0.320469 -0.01595,-0.64906 0.04564,-0.960199 0.05541,-0.238221 0.07865,-0.461094 0.241419,-0.619451 -0.203251,0.101734 -0.323412,0.341034 -0.41863,0.561068 -0.141603,0.305832 -0.237197,0.656661 -0.249714,1.032916 -0.01602,0.357583 0.06453,0.757639 0.326851,1.090979 0,0 0,10e-7 0,10e-7 0.311496,0.355122 0.76698,0.51101 1.201178,0.513035 z"
           id="path5114"
           inkscape:connector-curvature="0"
           inkscape:path-effect="#path-effect4726"
           inkscape:original-d="m 56.968098,37.030328 c -0.746283,0.691902 -0.504855,2.756642 -2.133203,2.811198 -2.075816,0.01959 -1.359025,-2.619647 -0.926042,-2.926952"
           sodipodi:nodetypes="ccc" />
        <path
           style="fill:#ffffff;stroke:none;stroke-width:0.2269562px;stroke-linecap:butt;stroke-linejoin:miter;stroke-opacity:1;fill-opacity:1"
           d="m 47.938258,31.845235 c 0.03181,-0.03901 0.06465,-0.07721 0.09774,-0.113826 0,0 0,0 0,0 0.140963,-0.14691 0.288891,-0.281503 0.440465,-0.407014 0.117325,-0.08649 0.180462,-0.179028 0.304567,-0.207359 -0.120231,-0.04003 -0.266369,0.01399 -0.386564,0.06311 -0.197318,0.07292 -0.39035,0.188036 -0.560396,0.34331 0,0 0,0 0,0 -0.0448,0.03907 -0.08735,0.08195 -0.126927,0.128249 -0.315676,0.36985 -0.372622,0.877738 -0.124333,1.161119 -0.06072,-0.348802 0.102252,-0.657647 0.355449,-0.96759 z"
           id="path5116"
           inkscape:connector-curvature="0"
           inkscape:path-effect="#path-effect4738"
           inkscape:original-d="m 48.781005,31.117527 c -0.233343,-0.01153 -1.622929,0.80622 -1.198642,1.695505" />
        <path
           style="fill:#ffffff;stroke:none;stroke-width:0.26458332px;stroke-linecap:butt;stroke-linejoin:miter;stroke-opacity:1;fill-opacity:1"
           d="m 46.844376,34.526493 c 0.02242,-0.07437 0.0526,-0.151033 0.0855,-0.225224 0.100194,-0.211311 0.240997,-0.415852 0.379145,-0.608195 0.09862,-0.132473 0.163044,-0.243856 0.269154,-0.350214 -0.141699,0.03788 -0.273272,0.123698 -0.401896,0.214176 -0.205501,0.14279 -0.404752,0.332516 -0.551655,0.579743 -0.05424,0.08755 -0.09854,0.185212 -0.127525,0.28986 -0.04946,0.17904 -0.05247,0.373568 0.01049,0.558364 0.173744,0.416912 0.571512,0.562939 0.872082,0.607279 -0.236909,-0.188577 -0.52335,-0.439979 -0.561828,-0.702722 -0.02869,-0.112542 -0.01208,-0.235375 0.02654,-0.363067 z"
           id="path5118"
           inkscape:connector-curvature="0"
           inkscape:path-effect="#path-effect4748"
           inkscape:original-d="m 47.578468,33.343377 c -0.147032,0.08483 -1.922994,1.500529 -0.199052,2.24945"
           sodipodi:nodetypes="cc" />
        <path
           style="fill:#ffffff;stroke:none;stroke-width:0.26458332px;stroke-linecap:butt;stroke-linejoin:miter;stroke-opacity:1;fill-opacity:1"
           d="m 46.302599,37.052093 c 0.05683,-0.151358 0.146202,-0.299029 0.252809,-0.429065 0,0 0,0 0,0 l 0,0 c 0.171727,-0.207461 0.396212,-0.389085 0.617514,-0.551335 l 0,0 c 0.08443,-0.06146 0.168895,-0.119978 0.252248,-0.175969 0.02531,-0.017 0.05131,-0.03424 0.07634,-0.05091 0.0098,-0.0072 0.02207,-0.01176 0.02983,-0.02258 -0.0103,0.0039 -0.02509,0.0018 -0.0375,0.0023 -0.03076,0.0027 -0.06192,0.0059 -0.09317,0.0098 -0.102063,0.01273 -0.206193,0.03266 -0.311113,0.06061 l 0,0 c -0.281557,0.07475 -0.576351,0.209384 -0.831098,0.437322 l 0,0 c 0,0 0,0 0,0 -0.167236,0.149654 -0.302079,0.342384 -0.382097,0.562702 -0.0543,0.149822 -0.08216,0.309565 -0.0787,0.471902 0,0 0,0 0,0 0.0368,0.639502 0.449907,1.083614 0.819201,1.349678 -0.188011,-0.409381 -0.420934,-0.91768 -0.382032,-1.347701 0,0 0,0 0,0 0.0046,-0.106852 0.02874,-0.213138 0.06777,-0.316773 z"
           id="path5120"
           inkscape:connector-curvature="0"
           inkscape:path-effect="#path-effect4758"
           inkscape:original-d="m 47.525781,35.823167 c 0.153907,-0.02565 -2.718701,0.692896 -0.909506,2.893881"
           sodipodi:nodetypes="cc" />
        <path
           style="fill:#ffffff;stroke:none;stroke-width:0.26458332px;stroke-linecap:butt;stroke-linejoin:miter;stroke-opacity:1;fill-opacity:1"
           d="m 52.014573,31.838928 c 1.084197,0.209351 2.154037,0.352894 3.068236,0.411673 -0.870969,-0.286135 -1.917179,-0.551518 -3.000631,-0.761144 -1.084197,-0.209351 -2.154037,-0.352893 -3.068236,-0.411672 0.870969,0.286134 1.91718,0.551517 3.000631,0.761143 z"
           id="path5122"
           inkscape:connector-curvature="0"
           inkscape:path-effect="#path-effect4768"
           inkscape:original-d="m 55.082942,32.251292 c 0,0 -2.844271,-1.273307 -6.06888,-1.174088" />
        <path
           style="fill:#ffffff;stroke:none;stroke-width:0.26458332px;stroke-linecap:butt;stroke-linejoin:miter;stroke-opacity:1;fill-opacity:1"
           d="m 51.293293,34.331623 c 0.377247,0.06124 0.754816,0.115742 1.126842,0.163715 0,0 0,0 0,0 l 0,0 c 0.554434,0.07155 1.14774,0.130985 1.647883,0.181068 l 0,0 c 0.163848,0.01651 0.313713,0.02965 0.467554,0.05387 l 0,0 c 0.04094,0.0065 0.08083,0.01253 0.118928,0.0252 0.01465,0.0049 0.03889,0.01364 0.03182,0.02535 0.0086,-0.01495 -0.0145,-0.02704 -0.02816,-0.0353 -0.03552,-0.02149 -0.0742,-0.03654 -0.112804,-0.05147 l 0,0 c -0.145887,-0.05652 -0.296177,-0.100163 -0.453357,-0.14427 l 0,0 C 53.5799,34.406029 53.04479,34.289206 52.471625,34.177447 l 0,0 c 0,0 0,0 0,0 -0.368701,-0.0719 -0.743773,-0.138382 -1.120772,-0.199711 -1.184519,-0.192283 -2.425609,-0.339066 -3.411786,-0.419479 0.982796,0.31591 2.128743,0.574007 3.354226,0.773366 z"
           id="path5124"
           inkscape:connector-curvature="0"
           inkscape:path-effect="#path-effect4778"
           inkscape:original-d="m 54.686067,34.78137 c 0.08212,-0.139607 -3.807065,-0.638664 -6.746875,-1.223697"
           sodipodi:nodetypes="cc" />
        <path
           style="fill:#ffffff;stroke:none;stroke-width:0.26458332px;stroke-linecap:butt;stroke-linejoin:miter;stroke-opacity:1;fill-opacity:1"
           d="m 50.798197,36.498107 c 0.229172,0.03841 0.458746,0.07224 0.687005,0.101567 0.544308,0.06999 1.080964,0.111851 1.581171,0.12857 l 0,0 c 0.162925,0.0055 0.330094,0.0079 0.484015,0.01038 l 0,0 c 0.0448,7.53e-4 0.08812,0.0012 0.131794,0.0034 0,0 0,0 0,0 0.01145,5.81e-4 0.02287,0.0012 0.03401,0.0027 0,0 0,0 0,0 0.0042,5.96e-4 0.01179,2.99e-4 0.01098,0.0036 0.0012,-0.0049 -0.006,-0.0062 -0.0098,-0.0085 0,0 0,-10e-7 0,-10e-7 -0.01012,-0.0059 -0.0206,-0.01082 -0.03115,-0.01572 0,0 0,0 0,0 -0.04016,-0.01864 -0.0811,-0.0351 -0.12266,-0.05154 l 0,0 c -0.147696,-0.05836 -0.299999,-0.111215 -0.458602,-0.162946 l 0,0 c -0.480146,-0.156534 -0.997164,-0.290496 -1.536317,-0.403535 -0.22569,-0.04731 -0.453821,-0.09021 -0.682896,-0.128744 -1.023652,-0.171576 -2.061463,-0.254903 -2.930207,-0.252597 0.820722,0.337621 1.803149,0.598461 2.842648,0.773297 z"
           id="path5126"
           inkscape:connector-curvature="0"
           inkscape:path-effect="#path-effect4788"
           inkscape:original-d="m 53.726952,36.749209 c 0.01166,-0.04665 -3.954729,-0.667932 -5.771223,-1.02526"
           sodipodi:nodetypes="cc" />
        <path
           style="fill:#ffffff;stroke:none;stroke-width:0.26458332px;stroke-linecap:butt;stroke-linejoin:miter;stroke-opacity:1;fill-opacity:1"
           d="m 50.058984,39.878959 c 0.353552,0.06606 0.707585,0.116584 1.05825,0.153502 0,0 0,0 0,0 l 0,0 c 0.586514,0.06231 1.147454,0.08447 1.68462,0.04895 l 0,0 c 0.172407,-0.01133 0.339289,-0.02694 0.501344,-0.0611 l 0,0 c 0.04688,-0.0099 0.09356,-0.02076 0.137854,-0.03915 0.02126,-0.0088 0.04829,-0.01699 0.0542,-0.04115 -0.0075,0.01786 -0.03553,0.0197 -0.05736,0.02214 -0.0455,0.0051 -0.09166,0.0028 -0.139069,8.5e-5 l 0,0 c -0.162189,-0.0097 -0.319417,-0.03369 -0.489636,-0.05911 l 0,0 c -0.544022,-0.08188 -1.040146,-0.174567 -1.63224,-0.283348 l 0,0 c 0,0 0,0 0,0 -0.346234,-0.06395 -0.683062,-0.125435 -1.033645,-0.191097 -1.306087,-0.244028 -2.23392,-0.442936 -3.328893,-0.727474 0.892757,0.543644 2.002291,0.9451 3.244579,1.177751 z"
           id="path5128"
           inkscape:connector-curvature="0"
           inkscape:path-effect="#path-effect4798"
           inkscape:original-d="m 53.495442,39.940745 c -0.06427,0.199954 -3.971171,-0.09169 -6.680729,-1.240234"
           sodipodi:nodetypes="cc" />
        <path
           style="fill:#ffffff;stroke:none;stroke-width:0.26458332px;stroke-linecap:butt;stroke-linejoin:miter;stroke-opacity:1;fill-opacity:1"
           d="m 40.861035,44.775729 c -0.4005,0.03938 -0.804536,0.114163 -1.201716,0.266527 -0.257965,0.106018 -0.466766,0.247561 -0.654388,0.362364 0,0 -10e-7,0 -10e-7,0 -0.08325,0.04871 -0.147,0.09209 -0.199639,0.11471 0,0 3e-6,4e-6 3e-6,4e-6 0.221494,0.240844 0.348635,0.355322 0.353424,0.398142 0.542865,-1.033783 1.069775,-2.057792 1.572612,-3.057627 0.530793,-1.066932 1.382526,-1.941801 2.285021,-2.613219 0.329885,-0.245115 0.668294,-0.465267 1.013484,-0.659704 0.103972,-0.05861 0.208136,-0.114656 0.313574,-0.167345 0.04086,-0.02033 0.08039,-0.04271 0.122752,-0.05862 -0.04398,0.0106 -0.08681,0.02815 -0.129251,0.04338 -0.111331,0.03975 -0.222086,0.08339 -0.33286,0.129896 -0.367799,0.154552 -0.733078,0.340136 -1.092225,0.556187 -0.985848,0.592286 -1.941135,1.43316 -2.582344,2.553601 -0.54395,0.953931 -1.09014,1.932569 -1.634827,2.928387 -0.04875,0.0964 0.0565,0.276185 0.347623,0.486819 0,0 5e-6,3e-6 5e-6,3e-6 0.109162,-0.04842 0.194702,-0.10107 0.263963,-0.142031 0,0 1e-6,-1e-6 1e-6,-1e-6 0.214466,-0.121601 0.397711,-0.24694 0.574864,-0.312565 0.321106,-0.130982 0.669085,-0.191006 1.036072,-0.222781 0.481364,-0.04177 0.994601,-0.03501 1.515365,-0.07567 1.485561,-0.119389 2.784936,-0.875572 3.868921,-1.688759 l 0,0 c 1.142694,-0.805529 2.14088,-2.037732 1.806035,-3.280009 l 0,-10e-7 C 48.0075,39.988962 47.812367,39.686451 47.57857,39.443368 l 0,0 c 0,0 0,0 0,0 -0.08035,-0.08354 -0.165227,-0.16063 -0.254105,-0.23015 l 0,0 c 0,0 -10e-7,-10e-7 -10e-7,-10e-7 -0.02735,-0.01912 -0.05426,-0.03879 -0.08083,-0.05871 0,0 0,0 0,0 -0.01038,-0.0078 -0.02138,-0.01623 -0.03183,-0.02388 -1.47e-4,-1.08e-4 -2.2e-4,-1.62e-4 -2.18e-4,-1.62e-4 -2e-6,0 7.1e-5,5.4e-5 2.18e-4,1.62e-4 0.01044,0.0077 0.02115,0.01646 0.03097,0.02496 0,0 1e-6,0 1e-6,0 0.02514,0.02174 0.04877,0.04547 0.07108,0.0709 0,0 10e-7,0 10e-7,0 l 0,0 c 0.07956,0.07941 0.153314,0.164468 0.221299,0.254079 0,0 10e-7,0 10e-7,0 l 0,0 c 0.199332,0.262486 0.351985,0.56991 0.409518,0.894929 l 0,0 c 0.22441,1.145975 -0.816665,2.102932 -1.907078,2.866226 l 0,0 c -1.104701,0.724278 -2.343215,1.400871 -3.644574,1.465799 -0.488565,0.02606 -1.006625,0.01666 -1.531985,0.06822 z"
           id="path5130"
           inkscape:connector-curvature="0"
           inkscape:path-effect="#path-effect4808"
           inkscape:original-d="m 44.466536,39.361969 c 0.02725,-0.01258 -2.647616,0.986479 -3.935677,3.389974 0,0 -0.528184,1.917246 -1.604037,2.993099 -0.222245,0.222245 0.550975,-0.30637 0.84336,-0.421681 2.069484,-0.816167 2.844271,0.603581 6.399609,-1.893424 3.555339,-2.497005 1.041797,-4.299479 1.041797,-4.299479"
           sodipodi:nodetypes="cssssc" />
        <path
           style="fill:#ffffff;stroke:none;stroke-width:0.26458332px;stroke-linecap:butt;stroke-linejoin:miter;stroke-opacity:1;fill-opacity:1"
           d="m 43.481626,36.825538 c 0.07334,-0.141526 0.162473,-0.275481 0.264244,-0.399042 0.0073,-0.04476 0.01504,-0.08774 0.02563,-0.126271 0,0 0,0 0,0 0.0028,-0.01032 0.0057,-0.02054 0.0099,-0.02904 0.0014,-0.003 0.0068,-0.0098 0.0052,-0.0046 -0.0077,0.02554 -0.0031,0.04606 -0.0024,0.06777 l 0,0 0,0 v 0 c -0.01373,0.04408 -0.02658,0.08428 -0.04024,0.122199 l 0,0 0,0 0,0 c 0.117283,0.141131 0.237814,0.277196 0.357147,0.410207 l 0,0 c 0.355465,0.396331 0.717721,0.779589 1.071547,1.144268 l 0,0 c 0.372,0.383426 0.73852,0.74884 1.092926,1.091245 l 0,0 c 0.124805,0.120579 0.248052,0.23824 0.369638,0.352866 l 0,0 c 0,0 0,0 0,0 0.03556,0.03353 0.07097,0.06678 0.106232,0.09977 0,0 0,0 0,0 0.02119,0.0198 0.01939,0.01817 0.04057,0.03796 -0.0096,-0.01259 -0.02418,-0.0315 -0.0338,-0.0441 0,0 -10e-7,0 -10e-7,0 -0.02934,-0.03833 -0.05893,-0.07688 -0.08872,-0.115595 0,0 0,0 0,0 l 0,0 c -0.101866,-0.132368 -0.206435,-0.26701 -0.313385,-0.403488 l 0,-10e-7 c -0.30447,-0.388531 -0.627151,-0.790467 -0.965227,-1.20413 l 0,0 c -0.329144,-0.40273 -0.650178,-0.787548 -0.994573,-1.204341 l 0,0 c -0.11336,-0.137211 -0.227032,-0.274418 -0.335856,-0.412666 l 0,0 0,0 0,0 c -0.08239,-0.04699 -0.163665,-0.09205 -0.241821,-0.136394 0,0 0,0 0,0 -0.02985,-0.02019 -0.06339,-0.03951 -0.08429,-0.06415 -0.0042,-0.005 -0.0154,0.002 -0.02262,0.0051 -0.02081,0.009 -0.04031,0.01951 -0.05963,0.03005 0,0 -10e-7,0 -10e-7,0 -0.07218,0.03938 -0.140019,0.08166 -0.205773,0.124137 -0.122232,0.14401 -0.22884,0.301928 -0.31637,0.470684 -0.0044,0.0086 -0.0088,0.0172 -0.0132,0.02583 0,0 0,10e-7 0,10e-7 -0.24166,0.460689 -0.271579,1.054652 0.04878,1.504895 0.914253,1.193942 2.277959,1.788624 3.460872,1.903663 -1.139506,-0.309092 -2.362331,-1.011217 -3.153734,-2.130076 -0.220067,-0.282764 -0.165799,-0.73166 0.0079,-1.095101 0.0037,-0.0072 0.0073,-0.01446 0.01108,-0.02166 z"
           id="path5132"
           inkscape:connector-curvature="0"
           inkscape:path-effect="#path-effect4818"
           inkscape:original-d="m 46.78164,39.59348 c 0,0 -2.982322,-3.289059 -3.026172,-3.45612 -0.01147,-0.04369 -1.084556,1.052659 -0.446484,1.918229 0.691328,0.937813 2.133203,1.802474 3.307291,2.017448"
           sodipodi:nodetypes="cssc" />
        <path
           sodipodi:nodetypes="cssc"
           inkscape:original-d="m 47.290766,39.624911 c 0,0 4.339569,0.938237 4.506174,0.892682 0.04357,-0.01191 -0.369352,1.465583 -1.437994,1.345781 C 49.201113,41.733573 47.731357,40.917203 46.95814,40.0079"
           inkscape:path-effect="#path-effect4875"
           inkscape:connector-curvature="0"
           id="path5134"
           d="m 51.681459,41.317793 c 0.102216,-0.160069 0.185533,-0.3312 0.24903,-0.508877 0.0039,-0.07818 0.0066,-0.158056 0.0046,-0.240232 0,0 0,-10e-7 0,-10e-7 -5.31e-4,-0.022 -0.0011,-0.04416 -0.0038,-0.06665 -9.18e-4,-0.0078 -4.42e-4,-0.02096 -0.0069,-0.02213 -0.03179,-0.0058 -0.06529,-0.02514 -0.0977,-0.04088 0,0 0,0 0,0 -0.07747,-0.04547 -0.157111,-0.09329 -0.238972,-0.141092 0,0 0,0 0,0 -0.174151,-0.02509 -0.349832,-0.05489 -0.525334,-0.08442 -0.533192,-0.08974 -1.026742,-0.175201 -1.540052,-0.258751 -0.787964,-0.13184 -1.538509,-0.242541 -2.231553,-0.329146 0.669101,0.201282 1.400451,0.403805 2.174438,0.602139 0.492919,0.123992 1.006071,0.245981 1.527121,0.355556 0.174878,0.0368 0.352984,0.07311 0.533852,0.104077 0,0 0,0 0,0 0.02598,-0.03085 0.05435,-0.06212 0.08564,-0.09609 0,-10e-7 0,-10e-7 0,-10e-7 0.01915,-0.01027 0.03924,-0.01653 0.0575,-0.03598 0.0037,-0.004 4.81e-4,0.0041 -0.0014,0.0068 -0.0053,0.0078 -0.01271,0.01543 -0.02023,0.02304 0,0 0,0 0,0 -0.02808,0.02841 -0.06143,0.05659 -0.09654,0.08528 -0.05603,0.149778 -0.127347,0.293823 -0.213092,0.427995 -0.0045,0.007 -0.0089,0.01391 -0.01347,0.02083 0,0 0,1e-6 0,1e-6 -0.22787,0.332244 -0.58945,0.603755 -0.944485,0.554669 -1.365503,-0.125711 -2.585227,-0.833945 -3.422565,-1.665594 0.692136,0.967589 1.889601,1.850376 3.380056,2.044776 0.550328,0.05222 1.049689,-0.270873 1.327706,-0.710483 0.0054,-0.0082 0.01077,-0.01653 0.01608,-0.02484 z"
           style="fill:#ffffff;stroke:none;stroke-width:0.26458332px;stroke-linecap:butt;stroke-linejoin:miter;stroke-opacity:1;fill-opacity:1" />
      </g>
    </g>
  </g>
</svg>
