<svg version="1.2" baseProfile="tiny-ps" xmlns="http://www.w3.org/2000/svg" viewBox="0 0 134 61" width="61" height="61">
	<title>logo</title>
	<style>
		tspan { white-space:pre }
		.shp0 { fill: #ffffff } 
	</style>
	<g id="_0Pee7b.tif">
		<path id="Layer" fill-rule="evenodd" class="shp0" d="M0 43.71C0.11 43.46 0.22 43.22 0.34 42.97C0.46 42.73 0.58 42.49 0.7 42.25C0.83 42 0.95 41.77 1.08 41.53C1.21 41.29 1.34 41.05 1.48 40.82C1.67 40.5 1.9 40.22 2.18 39.98C2.46 39.74 2.78 39.55 3.12 39.42C3.46 39.28 3.82 39.21 4.19 39.19C4.55 39.18 4.92 39.22 5.27 39.33C12.99 40.89 20.73 42.33 28.47 43.87C29.13 44 29.85 44.18 30.32 43.42C30.49 43.22 30.59 42.97 30.63 42.71C30.67 42.45 30.63 42.18 30.53 41.94C30.43 41.7 30.26 41.49 30.05 41.33C29.83 41.18 29.58 41.08 29.32 41.06L11 37.53C9.54 37.24 8.09 36.87 6.62 36.53C5.78 36.34 5.43 35.79 5.7 35.02C5.79 34.76 5.88 34.5 5.98 34.24C6.08 33.99 6.18 33.73 6.3 33.48C6.41 33.23 6.53 32.98 6.66 32.74C6.79 32.5 6.92 32.26 7.06 32.02C7.25 31.73 7.48 31.47 7.75 31.26C8.02 31.04 8.32 30.87 8.65 30.75C8.97 30.63 9.31 30.57 9.66 30.56C10.01 30.55 10.35 30.6 10.68 30.7L32.68 35.06C33.68 35.27 34.27 34.93 34.44 34.06C34.61 33.19 34.21 32.73 33.15 32.52C26.24 31.15 19.33 29.79 12.43 28.42C11.55 28.25 11.26 27.81 11.43 27C11.49 26.55 11.6 26.11 11.75 25.69C11.9 25.26 12.1 24.85 12.33 24.47C12.57 24.09 12.85 23.73 13.16 23.4C13.47 23.08 13.82 22.78 14.19 22.53C14.39 22.39 14.61 22.28 14.84 22.19C15.07 22.1 15.3 22.03 15.54 21.99C15.79 21.95 16.03 21.94 16.28 21.95C16.52 21.95 16.76 21.99 17 22.05C23.47 23.35 30 24.62 36.43 25.89C37.5 26.1 37.87 25.89 38.13 24.98C38.39 24.07 38.13 23.5 37.13 23.3C33.41 22.55 29.68 21.83 25.95 21.1L21.18 20.17C19.73 19.89 19.45 19.17 20.41 18.06C21.43 16.85 22.49 15.68 23.61 14.56C24.72 13.44 25.89 12.37 27.09 11.35C28.3 10.33 29.55 9.37 30.84 8.45C32.14 7.54 33.47 6.69 34.83 5.89C35.7 5.38 36.58 4.89 37.48 4.42C38.37 3.96 39.28 3.52 40.2 3.1C41.12 2.68 42.05 2.29 42.99 1.92C43.92 1.55 44.87 1.21 45.83 0.89C51.03 -0.75 55.83 0.37 58.83 5.63L67.9 3L68.17 3.33C68.11 3.35 68.05 3.38 67.98 3.41C67.92 3.43 67.86 3.46 67.8 3.49C67.74 3.52 67.69 3.56 67.63 3.59C67.57 3.63 67.51 3.66 67.46 3.7C66.64 4.4 65.93 5.23 65.35 6.14C64.77 7.06 64.34 8.06 64.06 9.1C63.78 10.15 63.66 11.23 63.7 12.31C63.75 13.39 63.96 14.46 64.32 15.48C64.75 16.49 65.31 17.43 66 18.28C66.69 19.13 67.49 19.88 68.39 20.51C69.28 21.14 70.26 21.64 71.3 22C72.33 22.36 73.41 22.58 74.5 22.64C75.44 22.72 76.39 22.69 77.33 22.54C78.26 22.39 79.18 22.12 80.05 21.75C80.91 21.38 81.73 20.89 82.49 20.32C83.24 19.74 83.91 19.07 84.5 18.33C88.77 13.09 86.71 5.08 80.38 2L79.47 1.56L79.47 1.32C79.77 1.32 80.07 1.32 80.37 1.32C81.64 1.37 82.91 1.45 84.18 1.55C85.45 1.66 86.71 1.79 87.98 1.95C89.24 2.11 90.5 2.3 91.75 2.51C93.01 2.73 94.26 2.97 95.5 3.24C99.79 4.11 104.13 4.85 108.5 5.42C109.48 5.54 110.47 5.62 111.46 5.65C112.45 5.68 113.44 5.68 114.43 5.62C115.42 5.57 116.41 5.48 117.39 5.34C118.37 5.2 119.34 5.02 120.31 4.8C120.86 4.66 121.41 4.56 121.97 4.5C122.53 4.43 123.09 4.41 123.66 4.42C124.22 4.43 124.78 4.47 125.34 4.55C125.9 4.64 126.45 4.76 126.99 4.91C127.27 5 127.54 5.11 127.8 5.23C128.07 5.35 128.33 5.49 128.58 5.63C128.83 5.78 129.08 5.94 129.31 6.12C129.55 6.29 129.77 6.47 129.99 6.67C131.6 8.16 131.63 10.02 130.29 11.77C130.01 12.11 129.71 12.42 129.39 12.72C129.06 13.02 128.72 13.3 128.37 13.55C128.01 13.8 127.64 14.03 127.25 14.23C126.86 14.44 126.46 14.62 126.05 14.77C120 17.32 113.84 19.67 107.92 22.49C104.21 24.27 100.58 26.21 97.05 28.33C93.52 30.44 90.09 32.72 86.77 35.15C83.46 37.58 80.25 40.17 77.18 42.9C74.1 45.63 71.15 48.5 68.34 51.51C66.42 53.51 64.75 55.81 62.99 57.99C62.76 58.32 62.5 58.63 62.22 58.92C61.94 59.21 61.64 59.48 61.32 59.73C61 59.97 60.66 60.2 60.3 60.39C59.95 60.58 59.58 60.75 59.2 60.89L56.58 60.89C56.04 60.77 55.51 60.6 55 60.39C54.49 60.18 54 59.92 53.54 59.62C53.08 59.32 52.64 58.97 52.24 58.6C51.84 58.22 51.47 57.8 51.14 57.36C50.91 57.04 50.68 56.71 50.47 56.38C50.25 56.05 50.04 55.71 49.84 55.37C49.64 55.03 49.45 54.68 49.27 54.33C49.08 53.98 48.91 53.63 48.74 53.27C47.97 51.57 47.46 49.75 46.8 47.91C46.67 48.19 46.54 48.46 46.42 48.73C46.15 49.37 45.86 49.99 45.53 50.6C45.2 51.21 44.84 51.81 44.45 52.38C44.06 52.95 43.65 53.51 43.21 54.04C42.76 54.57 42.29 55.08 41.8 55.57C38.01 59.15 33.18 58.14 29.92 55.73C29.7 55.59 29.5 55.42 29.33 55.23C29.15 55.04 29 54.83 28.87 54.6C28.75 54.38 28.65 54.14 28.59 53.89C28.52 53.64 28.48 53.38 28.48 53.12C28.5 52.93 28.47 52.73 28.41 52.54C28.35 52.36 28.25 52.19 28.12 52.04C27.99 51.9 27.83 51.78 27.65 51.69C27.48 51.61 27.29 51.57 27.09 51.56L5.91 47.42C3.94 47 2 46.57 0 46.13L0 43.71ZM36.15 54.4C36.47 54.43 36.79 54.43 37.1 54.37C37.42 54.32 37.72 54.23 38.01 54.09C38.3 53.96 38.57 53.78 38.81 53.57C39.05 53.37 39.26 53.13 39.44 52.86C39.63 52.52 39.68 51.76 39.5 51.64C39.39 51.58 39.27 51.53 39.15 51.48C39.02 51.44 38.9 51.41 38.77 51.38C38.64 51.36 38.52 51.34 38.39 51.34C38.26 51.34 38.13 51.34 38 51.36C37.61 51.36 37.27 51.82 36.88 51.98C36.67 52.07 36.45 52.12 36.22 52.14C36 52.15 35.77 52.13 35.55 52.07C35.33 52.01 35.12 51.91 34.94 51.78C34.75 51.65 34.59 51.49 34.46 51.3C34.32 51.14 34.22 50.95 34.16 50.75C34.09 50.54 34.06 50.33 34.08 50.12C34.09 49.91 34.15 49.7 34.24 49.51C34.33 49.32 34.45 49.14 34.61 49C34.73 48.87 34.85 48.74 34.98 48.63C35.11 48.51 35.25 48.4 35.39 48.29C35.53 48.19 35.68 48.09 35.83 48C35.98 47.91 36.14 47.83 36.3 47.76C37.02 47.44 37.13 46.94 36.77 46.46C36.69 46.38 36.6 46.3 36.5 46.24C36.4 46.18 36.3 46.13 36.19 46.09C36.08 46.05 35.96 46.02 35.85 46.01C35.73 45.99 35.62 45.99 35.5 46C34.95 46.06 34.41 46.22 33.93 46.48C33.44 46.75 33.01 47.1 32.66 47.53C32.31 47.96 32.04 48.46 31.88 48.99C31.73 49.52 31.67 50.08 31.73 50.63C31.9 52.92 33.61 54.37 36.15 54.4ZM44.28 34C44.57 34.01 44.85 33.98 45.13 33.92C45.41 33.85 45.68 33.75 45.94 33.62C46.19 33.49 46.43 33.33 46.64 33.14C46.85 32.95 47.04 32.73 47.2 32.49C47.41 32.15 47.45 31.29 47.29 31.22C47.17 31.16 47.04 31.12 46.91 31.08C46.77 31.04 46.64 31.01 46.51 31C46.37 30.98 46.23 30.97 46.1 30.96C45.96 30.96 45.83 30.97 45.69 30.99C45.3 31.04 44.96 31.44 44.56 31.59C44.35 31.66 44.14 31.71 43.92 31.71C43.7 31.71 43.48 31.68 43.28 31.62C43.07 31.55 42.87 31.45 42.7 31.32C42.52 31.2 42.37 31.04 42.24 30.86C42.11 30.7 42.02 30.52 41.96 30.32C41.89 30.13 41.87 29.92 41.88 29.72C41.89 29.52 41.94 29.32 42.03 29.13C42.11 28.94 42.23 28.77 42.37 28.63C42.51 28.51 42.65 28.39 42.79 28.28C42.93 28.16 43.07 28.04 43.21 27.93C43.36 27.82 43.5 27.71 43.65 27.6C43.8 27.5 43.95 27.39 44.1 27.29C44.37 27.06 44.75 26.67 44.7 26.45C44.66 26.36 44.62 26.27 44.57 26.18C44.51 26.1 44.45 26.02 44.39 25.95C44.32 25.88 44.24 25.81 44.16 25.76C44.08 25.7 43.99 25.65 43.9 25.61C43.82 25.59 43.73 25.57 43.65 25.56C43.57 25.56 43.48 25.55 43.4 25.56C43.31 25.56 43.23 25.57 43.14 25.59C43.06 25.61 42.98 25.63 42.9 25.66C42.37 25.77 41.87 25.98 41.42 26.27C40.97 26.57 40.58 26.95 40.27 27.39C39.96 27.83 39.74 28.33 39.61 28.85C39.49 29.37 39.46 29.92 39.54 30.45C39.79 32.57 41.55 34 44.28 34ZM40.5 44.32C40.81 44.35 41.12 44.35 41.43 44.3C41.74 44.25 42.04 44.16 42.32 44.03C42.61 43.9 42.87 43.73 43.11 43.53C43.35 43.33 43.56 43.1 43.74 42.84C43.8 42.74 43.84 42.64 43.87 42.53C43.91 42.42 43.93 42.31 43.93 42.19C43.94 42.08 43.93 41.97 43.91 41.86C43.9 41.74 43.86 41.63 43.82 41.53C43.73 41.41 43.62 41.3 43.5 41.23C43.37 41.15 43.23 41.1 43.08 41.08C42.93 41.05 42.78 41.06 42.64 41.1C42.49 41.14 42.36 41.21 42.24 41.3C42.16 41.35 42.08 41.41 42 41.46C41.92 41.51 41.83 41.56 41.75 41.6C41.67 41.65 41.58 41.7 41.5 41.74C41.41 41.79 41.33 41.83 41.24 41.87C41.03 41.97 40.8 42.02 40.57 42.04C40.33 42.06 40.1 42.04 39.87 41.98C39.65 41.92 39.43 41.82 39.24 41.69C39.05 41.56 38.88 41.4 38.74 41.21C38.61 41.04 38.52 40.85 38.46 40.64C38.4 40.44 38.39 40.22 38.41 40.01C38.44 39.8 38.5 39.6 38.6 39.41C38.7 39.22 38.84 39.06 39 38.92C39.12 38.79 39.24 38.67 39.37 38.55C39.5 38.43 39.64 38.32 39.78 38.22C39.92 38.12 40.07 38.02 40.22 37.93C40.37 37.84 40.53 37.76 40.69 37.69C41.37 37.39 41.51 36.88 41.19 36.45C41.1 36.36 41.01 36.29 40.91 36.22C40.81 36.15 40.7 36.1 40.59 36.05C40.47 36.01 40.35 35.98 40.23 35.96C40.11 35.95 39.99 35.94 39.87 35.95C39.31 36 38.77 36.17 38.27 36.44C37.78 36.71 37.35 37.08 37 37.52C36.65 37.96 36.4 38.47 36.25 39.01C36.1 39.56 36.07 40.12 36.15 40.68C36.26 42.87 38 44.29 40.5 44.32ZM51.85 28.65C52.54 28.81 53.25 28.85 53.95 28.78C54.65 28.7 55.34 28.52 55.98 28.22C56.62 27.93 57.21 27.53 57.72 27.05C58.24 26.57 58.67 26 59 25.38C59.4 24.65 59.75 23.9 60.05 23.12C60.35 22.35 60.59 21.55 60.79 20.74C60.98 19.94 61.12 19.12 61.2 18.29C61.29 17.46 61.32 16.63 61.29 15.8C61.27 15.72 61.24 15.65 61.2 15.59C61.16 15.52 61.11 15.46 61.05 15.4C61 15.35 60.93 15.3 60.87 15.26C60.8 15.22 60.73 15.19 60.65 15.17C60.57 15.19 60.5 15.22 60.43 15.26C60.36 15.29 60.29 15.34 60.23 15.39C60.18 15.45 60.13 15.51 60.08 15.58C60.04 15.64 60 15.71 59.98 15.79C59.79 16.89 59.76 18.01 59.57 19.11C59.5 19.7 59.39 20.28 59.25 20.85C59.1 21.43 58.92 21.99 58.7 22.54C58.49 23.09 58.23 23.63 57.95 24.15C57.67 24.67 57.35 25.17 57 25.65C56.72 26.03 56.39 26.37 56.02 26.66C55.64 26.94 55.22 27.17 54.78 27.34C54.34 27.5 53.87 27.6 53.4 27.63C52.93 27.66 52.46 27.62 52 27.51C51.94 27.5 51.88 27.49 51.82 27.48C51.76 27.48 51.7 27.47 51.64 27.46C51.58 27.46 51.51 27.45 51.45 27.45C51.39 27.44 51.33 27.44 51.27 27.44C51.02 28.44 51.04 28.44 51.85 28.65ZM61.26 12.85C61.42 12.79 61.55 12.7 61.67 12.58C61.78 12.47 61.87 12.33 61.93 12.18C61.98 12.02 62.01 11.86 62 11.7C62 11.54 61.97 11.37 61.91 11.22C61.84 11.07 61.75 10.93 61.64 10.82C61.52 10.71 61.38 10.62 61.23 10.56C61.08 10.49 60.91 10.47 60.75 10.47C60.58 10.46 60.4 10.49 60.24 10.56C60.08 10.62 59.94 10.72 59.82 10.85C59.7 10.97 59.6 11.12 59.54 11.28C59.48 11.44 59.46 11.62 59.47 11.79C59.49 12.5 60 12.93 60.79 12.93C60.95 12.94 61.11 12.91 61.26 12.85Z" />
		<path id="Layer" fill-rule="evenodd" class="shp0" d="M75 3.08C76.13 3.07 77.25 3.28 78.31 3.67C79.36 4.07 80.34 4.66 81.18 5.41C82.03 6.16 82.73 7.06 83.25 8.06C83.77 9.06 84.11 10.15 84.24 11.27C84.33 12.17 84.26 13.08 84.04 13.95C83.82 14.83 83.45 15.66 82.95 16.42C82.45 17.17 81.82 17.83 81.1 18.37C80.38 18.91 79.56 19.32 78.7 19.59C78.11 19.79 77.5 19.93 76.89 20.02C76.27 20.11 75.65 20.15 75.02 20.14C74.4 20.12 73.78 20.05 73.17 19.92C72.56 19.8 71.96 19.62 71.38 19.39C70.58 19.13 69.83 18.74 69.15 18.24C68.48 17.74 67.89 17.13 67.4 16.44C66.92 15.75 66.55 14.99 66.32 14.18C66.08 13.37 65.97 12.53 66 11.69C66.01 10.78 66.17 9.87 66.47 9.01C66.77 8.15 67.2 7.34 67.76 6.62C68.31 5.89 68.98 5.26 69.74 4.75C70.49 4.24 71.32 3.85 72.2 3.6C73.13 3.35 74.09 3.25 75 3.08ZM81.73 9.67C80.36 14.77 77.22 17.16 72.02 16.83C72.49 17.19 73.02 17.48 73.57 17.69C74.13 17.9 74.72 18.02 75.31 18.04C75.91 18.07 76.51 18.01 77.08 17.86C77.66 17.71 78.21 17.47 78.71 17.15C81.28 15.76 82.38 13.19 81.77 9.67L81.73 9.67Z" />
	</g>
</svg>