<svg id="Layer_1" data-name="Layer 1" xmlns="http://www.w3.org/2000/svg" viewBox="0 0 400 60.89"><defs><style>.cls-1{fill:#fff;}</style></defs><g id="_0Pee7b.tif" data-name="0Pee7b.tif"><path class="cls-1" d="M0,43.71a31.39,31.39,0,0,1,1.48-2.89,3.29,3.29,0,0,1,3.79-1.49c7.72,1.56,15.46,3,23.2,4.54.66.13,1.38.31,1.85-.45a1.45,1.45,0,0,0-1-2.36L11,37.53c-1.46-.29-2.91-.66-4.38-1-.84-.19-1.19-.74-.92-1.51a15.09,15.09,0,0,1,1.36-3,3.19,3.19,0,0,1,3.62-1.32l22,4.36c1,.21,1.59-.13,1.76-1s-.23-1.33-1.29-1.54q-10.37-2.05-20.72-4.1c-.88-.17-1.17-.61-1-1.42a6.43,6.43,0,0,1,2.76-4.47A3.52,3.52,0,0,1,17,22.05c6.47,1.3,13,2.57,19.43,3.84,1.07.21,1.44,0,1.7-.91s0-1.48-1-1.68c-3.72-.75-7.45-1.47-11.18-2.2l-4.77-.93c-1.45-.28-1.73-1-.77-2.11A55,55,0,0,1,34.83,5.89a57.55,57.55,0,0,1,11-5c5.2-1.64,10-.52,13,4.74L67.9,3l.27.33a3.18,3.18,0,0,0-.71.37,10.75,10.75,0,0,0-3.14,11.78A11.8,11.8,0,0,0,74.5,22.64a11.45,11.45,0,0,0,10-4.31C88.77,13.09,86.71,5.08,80.38,2l-.91-.44,0-.24c.3,0,.6,0,.9,0A87.46,87.46,0,0,1,95.5,3.24c4.29.87,8.63,1.61,13,2.18a34.28,34.28,0,0,0,11.81-.62,12.93,12.93,0,0,1,6.68.11,8.47,8.47,0,0,1,3,1.76c1.61,1.49,1.64,3.35.3,5.1a10.07,10.07,0,0,1-4.24,3c-6.05,2.55-12.21,4.9-18.13,7.72A132.47,132.47,0,0,0,68.34,51.51c-1.92,2-3.59,4.3-5.35,6.48a8,8,0,0,1-3.79,2.9H56.58a9.27,9.27,0,0,1-5.44-3.53,25,25,0,0,1-2.4-4.09c-.77-1.7-1.28-3.52-1.94-5.36-.13.28-.26.55-.38.82a20.88,20.88,0,0,1-4.62,6.84c-3.79,3.58-8.62,2.57-11.88.16a3.17,3.17,0,0,1-1.44-2.61,1.44,1.44,0,0,0-1.39-1.56L5.91,47.42C3.94,47,2,46.57,0,46.13ZM36.15,54.4a3.49,3.49,0,0,0,3.29-1.54c.19-.34.24-1.1.06-1.22a2.48,2.48,0,0,0-1.5-.28c-.39,0-.73.46-1.12.62a2,2,0,0,1-2.42-.68,1.68,1.68,0,0,1,.15-2.3,5.17,5.17,0,0,1,1.69-1.24c.72-.32.83-.82.47-1.3A1.58,1.58,0,0,0,35.5,46a4.22,4.22,0,0,0-3.77,4.63C31.9,52.92,33.61,54.37,36.15,54.4ZM44.28,34a3.39,3.39,0,0,0,2.92-1.51c.21-.34.25-1.2.09-1.27a3,3,0,0,0-1.6-.23c-.39.05-.73.45-1.13.6a2,2,0,0,1-2.32-.73,1.68,1.68,0,0,1,.13-2.23,17.69,17.69,0,0,1,1.73-1.34c.27-.23.65-.62.6-.84a1.49,1.49,0,0,0-.8-.84,1.65,1.65,0,0,0-1,.05,4.27,4.27,0,0,0-3.36,4.79C39.79,32.57,41.55,34,44.28,34ZM40.5,44.32a3.48,3.48,0,0,0,3.24-1.48,1.49,1.49,0,0,0,.08-1.31,1.1,1.1,0,0,0-1.58-.23,7.71,7.71,0,0,1-1,.57,2.06,2.06,0,0,1-2.5-.66A1.67,1.67,0,0,1,39,38.92a5.21,5.21,0,0,1,1.69-1.23c.68-.3.82-.81.5-1.24a1.68,1.68,0,0,0-1.32-.5,4.16,4.16,0,0,0-3.72,4.73C36.26,42.87,38,44.29,40.5,44.32ZM51.27,27.44c-.25,1-.23,1,.58,1.21A6.48,6.48,0,0,0,59,25.38a18.72,18.72,0,0,0,2.29-9.58.92.92,0,0,0-.64-.63.94.94,0,0,0-.67.62c-.19,1.1-.22,2.22-.41,3.32A14,14,0,0,1,57,25.65,4.81,4.81,0,0,1,52,27.51,5.69,5.69,0,0,0,51.27,27.44Zm9.52-14.51A1.17,1.17,0,0,0,62,11.7a1.22,1.22,0,0,0-1.25-1.23,1.24,1.24,0,0,0-1.28,1.32C59.49,12.5,60,12.93,60.79,12.93Z"/><path class="cls-1" d="M400,43.15a14.67,14.67,0,0,1-8.37,2.09A12.4,12.4,0,0,1,379.7,32.07c.23-5.75,3.23-10.24,8.13-11.94a13.79,13.79,0,0,1,11.82,1.26c-.47,1.08-.91,2.1-1.38,3.21C395.67,23,393,22.13,390,23a9,9,0,0,0-4.84,3.48A10.58,10.58,0,0,0,385.55,39c2.47,2.93,8.22,4.3,12.94,1.14.51.94,1,1.89,1.51,2.83Z"/><path class="cls-1" d="M296.56,45h-3.31V29l-.21-.07-9.18,13-9.18-12.75V44.94h-3.3V18.83L283.9,36.47l12.66-17.61Z"/><path class="cls-1" d="M186,45.88,167.33,27.05V45H164V18.75l18.66,19.12V19.68H186Z"/><path class="cls-1" d="M328.66,18.77l18.66,19.11V19.7h3.34V45.89l-18.6-18.81V44.93h-3.4Z"/><path class="cls-1" d="M75,3.08a9.26,9.26,0,0,1,9.24,8.19,7.91,7.91,0,0,1-5.54,8.32,10.71,10.71,0,0,1-7.32-.2A7.81,7.81,0,0,1,66,11.69,8.53,8.53,0,0,1,72.2,3.6C73.13,3.35,74.09,3.25,75,3.08Zm6.73,6.59c-1.37,5.1-4.51,7.49-9.71,7.16a5.84,5.84,0,0,0,6.69.32C81.28,15.76,82.38,13.19,81.77,9.67Z"/><path class="cls-1" d="M366.83,18.63,377.93,45c-1.27,0-2.41,0-3.55,0-.23,0-.54-.35-.65-.6-.74-1.78-1.46-3.57-2.14-5.37a.9.9,0,0,0-1-.68q-4.12,0-8.25,0a.93.93,0,0,0-1,.7c-.69,1.8-1.46,3.57-2.15,5.37a.84.84,0,0,1-1,.63c-.84,0-1.68,0-2.72,0,3.73-8.87,7.42-17.63,11.1-26.39Zm3.3,16.67c-1.21-3.08-2.36-6-3.57-9.11-1.28,3.14-2.48,6.09-3.7,9.11Z"/><path class="cls-1" d="M244.81,45c-1.3,0-2.42,0-3.54,0a1,1,0,0,1-.66-.58q-1.11-2.66-2.13-5.36a.93.93,0,0,0-1-.72q-4.17,0-8.33,0a.87.87,0,0,0-1,.65c-.7,1.8-1.46,3.57-2.15,5.36a.88.88,0,0,1-1,.68c-.84,0-1.68,0-2.67,0,3.72-8.86,7.41-17.62,11.1-26.38h.25ZM237,35.32c-1.19-3-2.34-6-3.57-9.13l-3.7,9.13Z"/><path class="cls-1" d="M323.86,45c-1.3,0-2.42,0-3.53,0a1,1,0,0,1-.67-.58c-.74-1.78-1.44-3.57-2.12-5.37a.94.94,0,0,0-1-.71c-2.78,0-5.55,0-8.33,0a.88.88,0,0,0-.95.66c-.7,1.8-1.46,3.57-2.16,5.36a.88.88,0,0,1-1,.68c-.84,0-1.68,0-2.67,0L312.5,18.62h.25ZM312.48,26.19l-3.69,9.09H316C314.86,32.27,313.73,29.37,312.48,26.19Z"/><path class="cls-1" d="M159.16,45c-1.31,0-2.46,0-3.6,0-.22,0-.51-.38-.62-.65q-1.06-2.58-2.06-5.19a1,1,0,0,0-1.14-.82c-2.71,0-5.43,0-8.14,0a1,1,0,0,0-1.09.75q-1,2.7-2.2,5.34a1.2,1.2,0,0,1-.85.57,26.89,26.89,0,0,1-2.76,0l11.09-26.36.26,0Zm-7.81-9.7-3.57-9.1-3.69,9.1Z"/><path class="cls-1" d="M198.08,23h-6.55V19.69h16.75v3.23h-6.69v22h-3.51Z"/><path class="cls-1" d="M252.88,41.69h12.93V45H249.58V19.69h3.3Z"/></g></svg>