<svg id="Layer_1" data-name="Layer 1" xmlns="http://www.w3.org/2000/svg" xmlns:xlink="http://www.w3.org/1999/xlink" viewBox="0 0 2033.13 634.64"><defs><style>.cls-1{fill:url(#linear-gradient);}.cls-2{fill:url(#peterportal);}</style><linearGradient id="linear-gradient" x1="0.46" y1="311.66" x2="2031.36" y2="311.66" gradientUnits="userSpaceOnUse"><stop offset="0" stop-color="#2484c6"/><stop offset="1" stop-color="#74d1f6"/></linearGradient><linearGradient id="peterportal" x1="-200.8" y1="-2600.52" x2="1860.3" y2="-2600.52" gradientTransform="translate(1962.7 -2199.48) rotate(180)" gradientUnits="userSpaceOnUse"><stop offset="0" stop-color="#2484c6"/><stop offset="1" stop-color="#6aa2b8"/></linearGradient></defs><path class="cls-1" d="M307.16,436.74q5.4,22,21,32.63t40,10.62a84.8,84.8,0,0,0,29.74-5q13.5-5,21.62-10.81,10.82,6.18,10.81,17.37a17.88,17.88,0,0,1-5,12.17,41.86,41.86,0,0,1-13.71,9.65,88.54,88.54,0,0,1-20.46,6.37,130.71,130.71,0,0,1-25.3,2.32q-22.39,0-40.74-6.18a84.46,84.46,0,0,1-31.47-18.53,82.91,82.91,0,0,1-20.27-30.51q-7.15-18.15-7.15-42.09,0-23.18,6.95-40.74a83.79,83.79,0,0,1,18.93-29.35,80.49,80.49,0,0,1,28.19-18A97,97,0,0,1,355,320.5a91.77,91.77,0,0,1,33.79,6,78.92,78.92,0,0,1,26.26,16.6,73.12,73.12,0,0,1,17,25.3,84.11,84.11,0,0,1,6,32.05q0,9.66-4.64,14.09t-13.51,6Zm47.88-85q-21.24,0-35.33,14.29T304.84,407l95-13.51A48.74,48.74,0,0,0,387.09,364Q375.89,351.79,355,351.78ZM537.69,473.42q8.12,5.81,22.79,5.8a54.57,54.57,0,0,0,13.9-1.93,66.09,66.09,0,0,0,12.74-4.64,40.07,40.07,0,0,1,4.83,7,19.06,19.06,0,0,1,2.12,9.27q0,10-10.23,16.61T552.75,512q-28.95,0-46.14-12.94t-17.19-42.67V276.1q2.7-.78,7.73-1.93A47.53,47.53,0,0,1,508,273q11.19,0,16.41,4.24t5.21,14.29v38.23h59.86a27.57,27.57,0,0,1,2.9,6.57,29.43,29.43,0,0,1,1.35,8.88q0,16.61-14.29,16.6H529.58v91.91Q529.58,467.64,537.69,473.42Zm134-36.68q5.41,22,21,32.63t40,10.62a84.7,84.7,0,0,0,29.73-5q13.51-5,21.63-10.81,10.8,6.18,10.81,17.37a17.92,17.92,0,0,1-5,12.17,42,42,0,0,1-13.71,9.65,88.63,88.63,0,0,1-20.47,6.37A130.53,130.53,0,0,1,730.39,512q-22.39,0-40.74-6.18a84.46,84.46,0,0,1-31.47-18.53,82.93,82.93,0,0,1-20.28-30.51q-7.14-18.15-7.14-42.09,0-23.18,7-40.74a83.91,83.91,0,0,1,18.92-29.35,80.68,80.68,0,0,1,28.19-18,97,97,0,0,1,34.76-6.18,91.81,91.81,0,0,1,33.79,6,79,79,0,0,1,26.26,16.6,73.39,73.39,0,0,1,17,25.3,84.11,84.11,0,0,1,6,32.05q0,9.66-4.63,14.09t-13.52,6Zm47.89-85q-21.24,0-35.34,14.29T669.38,407l95-13.51A48.73,48.73,0,0,0,751.63,364Q740.43,351.79,719.58,351.78ZM893.73,505.86A40.1,40.1,0,0,1,886.2,508a54.5,54.5,0,0,1-10.62,1q-11.21,0-16.6-4.25t-5.41-14.28V363.75q0-9.64,3.87-15.63t12.35-11.4q11.21-6.95,28.58-11.58a148.12,148.12,0,0,1,38.23-4.64q34,0,34,19.31A24.4,24.4,0,0,1,969,348.5a41.76,41.76,0,0,1-3.48,7.15c-2.58-.52-5.79-1-9.65-1.55a94.56,94.56,0,0,0-12.36-.77,113.38,113.38,0,0,0-28.19,3.28,89.55,89.55,0,0,0-21.63,8.3Zm166.83-79.93v79.93a52.9,52.9,0,0,1-8.11,2.13,60,60,0,0,1-11.2,1q-12,0-17.19-4.44t-5.21-14.87V290.38q0-6.56,3.67-10.23a23.61,23.61,0,0,1,10.23-5.6,119.1,119.1,0,0,1,28.58-5.79q16.61-1.54,31.28-1.55,50.19,0,74.33,21.24T1191.08,346q0,36.3-24.14,58.12t-72,21.82Zm31.66-33.6q26.65,0,41.9-11.58T1149.37,346q0-23.17-14.48-34t-41.51-10.81q-8.88,0-17.57.77t-15.64,1.93v88.43ZM1410,416.27q0,22-6.57,39.78a86.56,86.56,0,0,1-18.34,30.12,80,80,0,0,1-28.77,19.11q-17,6.75-37.85,6.76t-37.84-6.76a79.8,79.8,0,0,1-28.77-19.11,86.41,86.41,0,0,1-18.34-30.12q-6.57-17.76-6.57-39.78t6.57-39.77a84.78,84.78,0,0,1,18.54-30.12,81.78,81.78,0,0,1,29-19.12,107.14,107.14,0,0,1,74.91,0,80.72,80.72,0,0,1,29,19.31,87.44,87.44,0,0,1,18.54,30.12Q1410,394.27,1410,416.27Zm-91.53-63.33q-23.16,0-36.68,16.61t-13.52,46.72q0,30.12,13.13,46.54t37.07,16.41q23.94,0,37.08-16.41t13.13-46.54q0-29.73-13.33-46.53T1318.51,352.94Zm185,152.92A40.1,40.1,0,0,1,1496,508a54.47,54.47,0,0,1-10.61,1q-11.22,0-16.61-4.25t-5.41-14.28V363.75q0-9.64,3.87-15.63t12.35-11.4q11.2-6.95,28.58-11.58a148.12,148.12,0,0,1,38.23-4.64q34,0,34,19.31a24.4,24.4,0,0,1-1.54,8.69,41,41,0,0,1-3.48,7.15c-2.58-.52-5.79-1-9.65-1.55a94.68,94.68,0,0,0-12.36-.77,113.38,113.38,0,0,0-28.19,3.28,89.55,89.55,0,0,0-21.63,8.3Zm168.76-32.44q8.1,5.81,22.78,5.8a54.51,54.51,0,0,0,13.9-1.93,66.2,66.2,0,0,0,12.75-4.64,39.49,39.49,0,0,1,4.82,7,19,19,0,0,1,2.13,9.27q0,10-10.24,16.61T1687.3,512q-29,0-46.15-12.94T1624,456.43V276.1q2.7-.78,7.72-1.93A47.53,47.53,0,0,1,1642.5,273q11.2,0,16.42,4.24t5.21,14.29v38.23H1724a26.79,26.79,0,0,1,2.9,6.57,29.12,29.12,0,0,1,1.35,8.88q0,16.61-14.29,16.6h-49.81v91.91Q1664.13,467.64,1672.24,473.42ZM1848.33,320.5q35.91,0,57.15,15.64t21.24,49.24v90q0,8.88-4.06,13.7a44.22,44.22,0,0,1-11,9.08q-10,5.79-25.88,10t-36.68,4.25q-37.47,0-58.51-14.68t-21-43.25q0-25.49,16.41-39t47.31-16.6l53.67-5.41V385q0-17-11-24.71t-30.7-7.72a103.85,103.85,0,0,0-29.74,4.24,171.27,171.27,0,0,0-25.48,9.66,28.44,28.44,0,0,1-6.57-7.53,18.58,18.58,0,0,1-2.7-9.85,17.16,17.16,0,0,1,3.28-10.81c2.18-2.83,5.6-5.28,10.23-7.34A91.73,91.73,0,0,1,1819,323,165.37,165.37,0,0,1,1848.33,320.5Zm.77,160.26a91.24,91.24,0,0,0,23.55-2.7q10-2.7,14.29-5.79v-49l-42.09,4.25q-17.76,1.93-26.64,7.92t-8.89,18.34q0,12.75,9.66,19.89T1849.1,480.76ZM2012.83,509q-11.2,0-16.61-4.25t-5.41-14.28V256q2.7-.76,7.73-1.93a48.11,48.11,0,0,1,10.81-1.15q11.19,0,16.61,4.24t5.4,14.29v234.4a53.47,53.47,0,0,1-7.91,2.13A54.65,54.65,0,0,1,2012.83,509ZM505.6,128.77v13.61a71.78,71.78,0,0,1-5.72,9.79c-12.39,17.85-30,26.08-37.11,29.32-85.29,38.73-141.64,60.12-141.64,60.12-44.92,18.43-88.08,39.77-128.95,65.32-5.93,3.71-12.36,6.95-17.73,14.78-5.47,33.15-5.86,68.73-7.74,104.19-1.23,23.18-2.35,46.37-3.71,69.55-.46,7.76-3.2,14.39-13,17.36-17-2.38-21.47-16.27-23.76-29.3-9.14-52.11-9.36-104.77-7.29-157.4.64-16,8.35-28.86,22.56-38.6,51.91-35.61,107.64-64.46,166.71-87.76,41.73-16.47,83.93-32,124.22-51.59,6.27-3,13.05-5.51,18.36-11.85-11-6.52-23-6-34.24-7.9-66.18-11.3-132.61-19.84-200.1-19.32-55.25.43-108.72,8.71-160.16,28.38-15.66,6-27.06,7-35.5,2.52C9.52,134,5.38,117.94,3.44,111,1.27,103.2,1,97.34.74,88.9.14,71.27-.38,56,8.91,43c2.43-3.39,7.48-10.34,15.77-11.63A20.33,20.33,0,0,1,35.8,32.85C49.63,38.71,66.74,68,65.34,83.49a17.53,17.53,0,0,1-12.48,7.78C42.11,91,39,80.87,30.58,76.31c-3.79,14.56-5,28,.66,43.25A156.78,156.78,0,0,1,75.59,99.77c0-5.08-.19-9.6,0-14.09,1.26-25.16,9.2-47.55,29.51-65,7.46-6.38,14.53-9.08,20.94-7.85a21.12,21.12,0,0,1,9,4.73c6.26,5.72,6.53,14.37,6.82,31.43.2,12.1-.72,23.34-5.68,27.06a7.69,7.69,0,0,1-5.08,1.8,8,8,0,0,1-5.47-3.18c-7.43-7.14-10.8-15.19-13.31-24.46A60.82,60.82,0,0,0,97.85,92.57c7.21-2.24,14.89-4.38,23-6.36s14.21-3.19,19.91-4.33c0,0,11.12-2.21,21.43-3.87C199.72,72,241,71.68,241,71.68a538.12,538.12,0,0,1,82.6,5c11.17,1.47,22.45,2.2,33.61,3.73,37.56,5.16,75.29,9.42,112.08,18.87C486.55,103.74,499.42,112.36,505.6,128.77ZM103.25,172.48c-4-7.57-9.11-13.27-18.55-12.74s-14.25,6.73-17.27,14.61C61.3,190.3,62,207,63.37,223.51c.69,8.23,6.55,13.2,15.11,13.87,6.28.48,12.64,1.08,18.68-1.22C112,219.94,114.41,193.39,103.25,172.48ZM121.8,586.74c2.88,12.64,14.19,23.25,25.5,23.94,12.8.78,23.2-6.52,28.47-20,8.46-21.58-4.62-43.64-31.57-51.74C125.37,550.81,117.54,568.05,121.8,586.74Z"/><path class="cls-2" d="M124.88,425.52v-49C124.47,392.88,124.55,409.21,124.88,425.52Z"/></svg>