<svg xmlns="http://www.w3.org/2000/svg" version="1.1" xmlns:xlink="http://www.w3.org/1999/xlink" width="80" height="80"><svg xmlns="http://www.w3.org/2000/svg" version="1.1" xmlns:xlink="http://www.w3.org/1999/xlink" width="80" height="80"><svg width="80" height="80" viewBox="0 0 80 80" fill="none" xmlns="http://www.w3.org/2000/svg">
<circle cx="40" cy="40" r="40" fill="#305DB7"></circle>
<path d="M5.54694 46.9209C5.77959 46.4015 6.03894 45.8946 6.32394 45.4021C6.51962 45.0669 6.8223 44.8074 7.18323 44.6653C7.54417 44.5233 7.94236 44.507 8.31369 44.619C12.3667 45.4388 16.4302 46.1956 20.4937 47.0049C20.8402 47.0733 21.2182 47.1679 21.4649 46.7685C21.5523 46.661 21.6087 46.5318 21.6282 46.3946C21.6477 46.2575 21.6295 46.1176 21.5755 45.9901C21.5215 45.8625 21.4338 45.7521 21.3218 45.6708C21.2098 45.5894 21.0778 45.5401 20.9399 45.5282L11.3219 43.673C10.5554 43.5206 9.79419 43.3262 9.02244 43.1475C8.58144 43.0476 8.39769 42.7586 8.53944 42.3539C8.71925 41.8039 8.95868 41.2752 9.25344 40.7773C9.45134 40.4701 9.74414 40.236 10.0872 40.1108C10.4303 39.9855 10.8049 39.976 11.1539 40.0836L22.7039 42.375C23.2289 42.4853 23.5387 42.3066 23.6279 41.8494C23.7172 41.3922 23.5072 41.1505 22.9507 41.0401C19.3212 40.3219 15.6952 39.6036 12.0727 38.8854C11.6107 38.796 11.4584 38.5648 11.5477 38.1391C11.6104 37.6675 11.7719 37.2145 12.0216 36.8097C12.2713 36.4048 12.6036 36.0574 12.9967 35.79C13.2114 35.6473 13.4536 35.5511 13.7077 35.5077C13.9617 35.4642 14.2221 35.4744 14.4719 35.5377C17.8687 36.2209 21.2969 36.8883 24.6727 37.5558C25.2344 37.6661 25.4287 37.5558 25.5652 37.0775C25.7017 36.5993 25.5652 36.2997 25.0402 36.1946C23.0872 35.8005 21.1289 35.4221 19.1707 35.0385L16.6664 34.5497C15.9052 34.4025 15.7582 34.0242 16.2622 33.4408C18.3988 30.8882 20.96 28.7245 23.8327 27.045C25.6602 25.9687 27.5959 25.0879 29.6077 24.4173C32.3377 23.5554 34.8577 24.1441 36.4327 26.9084L41.1944 25.5262L41.3362 25.6996C41.2042 25.7485 41.079 25.8138 40.9634 25.8941C40.0948 26.6376 39.4721 27.6275 39.1777 28.733C38.8834 29.8384 38.9312 31.0073 39.3149 32.0849C39.767 33.1484 40.507 34.0642 41.4513 34.729C42.3957 35.3939 43.5068 35.7814 44.6594 35.8478C45.6536 35.9362 46.6541 35.7754 47.5706 35.38C48.4872 34.9845 49.291 34.3669 49.9094 33.5827C52.1512 30.8289 51.0697 26.6193 47.7464 25.0007L47.2687 24.7694V24.6433C47.4262 24.6433 47.5837 24.6433 47.7412 24.6433C50.4132 24.7475 53.0711 25.0851 55.6844 25.6523C57.9367 26.1096 60.2152 26.4985 62.5094 26.798C64.5794 27.0498 66.6774 26.9395 68.7097 26.4722C69.8636 26.1836 71.0729 26.2035 72.2167 26.53C72.7999 26.7259 73.3363 27.0409 73.7917 27.4549C74.6369 28.238 74.6527 29.2155 73.9492 30.1352C73.3577 30.8465 72.5901 31.3901 71.7232 31.7118C68.5469 33.0519 65.3129 34.2869 62.2049 35.7689C54.3899 39.5126 47.3425 44.6851 41.4254 51.0201C40.4174 52.0711 39.5407 53.2799 38.6167 54.4255C38.1238 55.1244 37.4296 55.656 36.6269 55.9496H35.2514C34.1074 55.6956 33.0933 55.0369 32.3954 54.0945C31.9083 53.4196 31.4865 52.6998 31.1354 51.945C30.7312 51.0516 30.4634 50.0951 30.1169 49.1281C30.0487 49.2753 29.9804 49.4172 29.9174 49.5591C29.3559 50.9069 28.5313 52.129 27.4919 53.1537C25.5022 55.0352 22.9664 54.5044 21.2549 53.2378C21.0262 53.0888 20.8377 52.8857 20.7058 52.6465C20.574 52.4073 20.5029 52.1393 20.4989 51.8662C20.5075 51.7638 20.4952 51.6607 20.4628 51.5633C20.4303 51.4658 20.3783 51.376 20.31 51.2993C20.2418 51.2226 20.1586 51.1606 20.0656 51.1171C19.9726 51.0736 19.8718 51.0495 19.7692 51.0463L8.64969 48.8706C7.61544 48.6499 6.59694 48.4239 5.54694 48.1927V46.9209ZM24.5257 52.5389C24.8601 52.5757 25.1981 52.5196 25.5028 52.3769C25.8075 52.2341 26.067 52.0102 26.2529 51.7295C26.3527 51.5508 26.3789 51.1514 26.2844 51.0884C26.0439 50.9577 25.7684 50.9062 25.4969 50.9412C25.2922 50.9412 25.1137 51.183 24.9089 51.2671C24.6883 51.3619 24.4418 51.3782 24.2106 51.3132C23.9794 51.2481 23.7775 51.1057 23.6384 50.9097C23.4951 50.7362 23.4234 50.5144 23.4381 50.2897C23.4527 50.065 23.5526 49.8544 23.7172 49.701C23.9654 49.4254 24.2673 49.2036 24.6044 49.0493C24.9824 48.8811 25.0402 48.6183 24.8512 48.3661C24.7648 48.279 24.6602 48.2121 24.5449 48.1703C24.4296 48.1285 24.3065 48.1128 24.1844 48.1243C23.8948 48.1539 23.6139 48.2403 23.3576 48.3786C23.1014 48.5169 22.8749 48.7044 22.6911 48.9304C22.5072 49.1563 22.3697 49.4164 22.2864 49.6956C22.203 49.9748 22.1754 50.2677 22.2052 50.5576C22.2944 51.7611 23.1922 52.5231 24.5257 52.5389ZM28.7939 41.8179C29.0957 41.8266 29.3948 41.7584 29.663 41.6196C29.9311 41.4807 30.1596 41.2759 30.3269 41.0243C30.4372 40.8456 30.4582 40.3937 30.3742 40.3569C30.1105 40.2404 29.82 40.1986 29.5342 40.236C29.3294 40.2623 29.1509 40.4725 28.9409 40.5513C28.724 40.6303 28.4872 40.6355 28.267 40.5661C28.0468 40.4968 27.8556 40.3568 27.7229 40.1677C27.5888 39.9979 27.5217 39.7848 27.5343 39.5687C27.5469 39.3527 27.6383 39.1488 27.7912 38.9957C28.0791 38.7425 28.3825 38.5073 28.6994 38.2915C28.8412 38.1707 29.0407 37.9657 29.0144 37.8501C28.9775 37.7521 28.9213 37.6626 28.8491 37.5868C28.777 37.5109 28.6904 37.4504 28.5944 37.4086C28.4209 37.3627 28.2375 37.3719 28.0694 37.4349C27.5105 37.5508 27.0168 37.8758 26.689 38.3436C26.3612 38.8114 26.2241 39.3867 26.3054 39.9522C26.4367 41.0664 27.3607 41.8179 28.7939 41.8179ZM26.8094 47.2414C27.1367 47.2772 27.4675 47.2238 27.7669 47.0869C28.0663 46.95 28.3232 46.7347 28.5104 46.4636C28.5695 46.3597 28.604 46.2436 28.6112 46.1243C28.6185 46.005 28.5984 45.8855 28.5524 45.7752C28.5072 45.711 28.4495 45.6567 28.3826 45.6157C28.3158 45.5746 28.2413 45.5476 28.1636 45.5362C28.086 45.5249 28.0069 45.5296 27.9311 45.5499C27.8554 45.5702 27.7845 45.6057 27.7229 45.6543C27.5556 45.7671 27.3801 45.8673 27.1979 45.9539C26.9725 46.0547 26.7193 46.0753 26.4806 46.0122C26.2418 45.9491 26.0318 45.8061 25.8854 45.607C25.7494 45.4273 25.6876 45.202 25.7131 44.9779C25.7385 44.7538 25.8491 44.5482 26.0219 44.4035C26.271 44.1303 26.5728 43.9104 26.9092 43.7571C27.2662 43.5995 27.3397 43.3314 27.1717 43.1055C27.0821 43.014 26.9738 42.9431 26.8541 42.8977C26.7344 42.8523 26.6063 42.8335 26.4787 42.8427C26.1847 42.871 25.8996 42.9586 25.6404 43.1004C25.3813 43.2421 25.1535 43.435 24.971 43.6674C24.7884 43.8997 24.6548 44.1668 24.5783 44.4523C24.5018 44.7378 24.4839 45.0359 24.5257 45.3285C24.5834 46.4794 25.4969 47.2257 26.8094 47.2414ZM32.4637 38.3704C32.3324 38.8959 32.3429 38.8959 32.7682 39.0063C33.4955 39.1713 34.2569 39.0925 34.9352 38.782C35.6134 38.4715 36.1709 37.9465 36.5219 37.2878C37.3645 35.7471 37.7796 34.0087 37.7242 32.2531C37.7011 32.1738 37.6581 32.1017 37.5993 32.0437C37.5405 31.9858 37.4678 31.9439 37.3882 31.922C37.3067 31.9419 37.2317 31.9823 37.1701 32.0393C37.1086 32.0963 37.0626 32.1681 37.0364 32.2478C36.9367 32.8259 36.9209 33.4145 36.8212 33.9926C36.6706 35.2345 36.2063 36.4174 35.4719 37.4296C35.1796 37.8337 34.7743 38.1421 34.3072 38.3161C33.8401 38.49 33.332 38.5217 32.8469 38.4071C32.7201 38.3866 32.5921 38.3744 32.4637 38.3704ZM37.4617 30.7448C37.5468 30.7478 37.6317 30.7331 37.7108 30.7016C37.7899 30.67 37.8617 30.6223 37.9214 30.5615C37.9811 30.5007 38.0276 30.4282 38.0578 30.3484C38.088 30.2687 38.1014 30.1836 38.0969 30.0984C38.0977 30.0124 38.0811 29.9272 38.0483 29.8477C38.0154 29.7683 37.9669 29.6962 37.9057 29.6359C37.8445 29.5756 37.7717 29.5283 37.6919 29.4967C37.612 29.4651 37.5266 29.4499 37.4407 29.452C37.3498 29.4489 37.2593 29.4648 37.1749 29.4989C37.0906 29.5329 37.0143 29.5843 36.951 29.6496C36.8876 29.715 36.8387 29.7929 36.8073 29.8783C36.7759 29.9638 36.7628 30.0548 36.7687 30.1457C36.7792 30.5188 37.0469 30.7448 37.4617 30.7448Z" fill="white"></path>
<path d="M44.922 25.5683C46.1178 25.5628 47.2737 25.9988 48.1687 26.7929C49.0636 27.5869 49.6348 28.6833 49.773 29.8724C49.8651 30.825 49.626 31.7802 49.0961 32.5768C48.5662 33.3734 47.778 33.9626 46.8645 34.2449C45.6109 34.6629 44.2503 34.6257 43.0215 34.1398C42.1759 33.8633 41.443 33.319 40.9335 32.589C40.424 31.8591 40.1655 30.9831 40.197 30.0931C40.2101 29.1281 40.5339 28.1932 41.1203 27.4272C41.7068 26.6612 42.5245 26.1051 43.452 25.8415C43.9402 25.7102 44.4442 25.6576 44.922 25.5683ZM48.4552 29.0316C47.736 31.7118 46.0875 32.9678 43.3575 32.7944C43.855 33.1797 44.4588 33.4025 45.0871 33.4326C45.7154 33.4627 46.3377 33.2986 46.8697 32.9626C48.219 32.2321 48.7965 30.8814 48.4762 29.0316H48.4552Z" fill="white"></path>
</svg></svg><style>@media (prefers-color-scheme: light) { :root { filter: none; } }
@media (prefers-color-scheme: dark) { :root { filter: none; } }
</style></svg>